<svg id="svg" xmlns="http://www.w3.org/2000/svg" xmlns:xlink="http://www.w3.org/1999/xlink" width="400" height="408.94568690095844" viewBox="0, 0, 400,408.94568690095844" version="1.1"><g id="svgg"><path id="path0" d="M197.862 46.094 C 197.608 46.256,198.173 46.362,199.117 46.328 C 200.062 46.295,200.900 46.162,200.979 46.034 C 201.190 45.693,198.407 45.747,197.862 46.094 M186.082 46.296 C 187.558 46.373,190.078 46.373,191.682 46.297 C 193.287 46.221,192.080 46.158,189.000 46.158 C 185.920 46.157,184.607 46.219,186.082 46.296 M206.918 46.298 C 208.633 46.373,211.333 46.372,212.918 46.297 C 214.503 46.221,213.100 46.159,209.800 46.160 C 206.500 46.161,205.203 46.222,206.918 46.298 M232.400 96.400 C 232.400 96.620,231.680 96.800,230.800 96.800 C 229.920 96.800,229.200 96.972,229.200 97.182 C 229.200 97.392,228.572 97.682,227.804 97.826 C 227.035 97.970,226.500 98.239,226.615 98.424 C 226.729 98.608,225.782 98.814,224.511 98.880 C 222.494 98.985,222.184 99.110,222.077 99.862 C 221.946 100.784,220.519 101.374,219.432 100.957 C 219.034 100.804,218.800 100.931,218.800 101.299 C 218.800 101.987,217.026 104.000,216.419 104.000 C 216.189 104.000,215.633 104.367,215.185 104.815 C 214.737 105.263,214.174 105.508,213.934 105.359 C 213.675 105.199,213.573 105.315,213.685 105.644 C 213.874 106.198,212.605 107.600,211.915 107.600 C 211.716 107.600,211.664 107.780,211.800 108.000 C 211.936 108.220,211.860 108.400,211.631 108.400 C 211.402 108.400,211.102 108.852,210.963 109.403 C 210.811 110.012,210.335 110.501,209.756 110.647 C 209.230 110.779,208.800 111.035,208.800 111.216 C 208.800 111.398,208.432 111.663,207.983 111.805 C 207.375 111.998,207.234 112.276,207.429 112.891 C 207.649 113.584,207.555 113.681,206.845 113.496 C 206.380 113.374,206.100 113.438,206.223 113.637 C 206.346 113.837,206.156 114.000,205.800 114.000 C 205.444 114.000,205.265 114.181,205.402 114.403 C 205.671 114.838,204.703 116.000,204.072 116.000 C 203.860 116.000,203.574 116.450,203.436 117.000 C 203.274 117.646,202.904 118.000,202.392 118.000 C 201.955 118.000,201.600 118.269,201.600 118.600 C 201.600 118.930,201.375 119.155,201.100 119.100 C 200.825 119.045,200.647 119.230,200.704 119.511 C 200.761 119.792,200.536 120.127,200.204 120.254 C 199.872 120.381,199.597 120.781,199.593 121.143 C 199.584 121.973,197.896 123.600,197.044 123.600 C 196.690 123.600,196.400 123.791,196.400 124.024 C 196.400 124.257,196.625 124.316,196.900 124.155 C 197.175 123.994,197.057 124.253,196.638 124.731 C 195.849 125.631,195.367 125.900,195.800 125.200 C 195.936 124.980,195.857 124.800,195.624 124.800 C 195.391 124.800,195.200 125.250,195.200 125.800 C 195.200 126.350,195.007 126.800,194.771 126.800 C 194.151 126.800,193.351 127.695,193.009 128.772 C 192.830 129.336,192.604 129.530,192.438 129.261 C 192.112 128.735,191.023 129.867,190.614 131.157 C 190.463 131.631,190.008 132.000,189.573 132.000 C 189.148 132.000,188.800 132.270,188.800 132.600 C 188.800 132.930,188.665 133.179,188.500 133.153 C 187.723 133.030,187.457 133.248,187.979 133.579 C 188.433 133.866,188.325 134.003,187.479 134.216 C 186.886 134.365,186.400 134.737,186.400 135.043 C 186.400 135.590,185.698 136.413,184.217 137.600 C 183.514 138.164,183.498 138.146,183.949 137.300 C 184.257 136.722,184.280 136.400,184.014 136.400 C 183.592 136.400,183.441 137.182,183.593 138.581 C 183.669 139.283,183.605 139.304,182.962 138.781 C 182.456 138.370,182.339 138.354,182.563 138.727 C 182.777 139.081,182.605 139.326,182.040 139.474 C 181.578 139.594,181.200 139.915,181.200 140.185 C 181.200 140.456,180.864 141.065,180.453 141.539 C 179.667 142.445,178.951 142.727,179.438 141.938 C 179.616 141.650,179.548 141.585,179.255 141.766 C 178.998 141.925,178.891 142.223,179.017 142.428 C 179.144 142.632,178.922 142.803,178.524 142.806 C 177.910 142.811,177.891 142.871,178.400 143.200 C 179.002 143.589,178.508 143.819,177.466 143.636 C 177.282 143.604,177.036 143.942,176.919 144.389 C 176.802 144.835,176.447 145.200,176.130 145.200 C 175.812 145.200,175.655 145.365,175.780 145.568 C 175.905 145.770,175.736 146.207,175.404 146.539 C 175.072 146.871,174.800 147.325,174.800 147.548 C 174.800 147.771,174.592 148.081,174.338 148.238 C 174.030 148.428,173.981 148.336,174.189 147.962 C 174.361 147.653,174.028 147.887,173.451 148.483 C 172.873 149.078,172.400 149.731,172.400 149.934 C 172.400 150.461,171.533 151.101,170.600 151.262 C 170.126 151.344,169.717 151.806,169.597 152.397 C 169.449 153.122,169.068 153.451,168.197 153.605 C 167.375 153.751,167.163 153.919,167.519 154.144 C 168.146 154.539,167.440 155.600,166.551 155.600 C 166.248 155.600,166.045 155.825,166.100 156.100 C 166.155 156.375,165.975 156.555,165.700 156.500 C 165.425 156.445,165.200 156.768,165.200 157.218 C 165.200 157.774,164.977 157.998,164.500 157.918 C 164.109 157.852,163.844 158.021,163.900 158.300 C 163.955 158.575,163.768 158.800,163.485 158.800 C 163.202 158.800,162.944 159.155,162.911 159.588 C 162.850 160.390,160.611 162.878,160.263 162.530 C 160.159 162.425,159.954 162.713,159.810 163.170 C 159.567 163.933,159.120 164.185,158.270 164.037 C 158.089 164.006,158.062 164.177,158.210 164.417 C 158.359 164.657,158.147 165.106,157.740 165.414 C 157.333 165.722,157.142 165.980,157.316 165.987 C 157.490 165.994,156.970 166.715,156.161 167.590 C 155.352 168.464,154.531 169.081,154.335 168.960 C 154.140 168.839,154.028 168.889,154.087 169.070 C 154.247 169.565,152.969 171.236,152.664 170.931 C 152.519 170.786,152.397 171.012,152.394 171.433 C 152.389 172.075,152.324 172.102,152.000 171.600 C 151.761 171.230,151.610 171.185,151.606 171.482 C 151.603 171.747,151.182 172.382,150.670 172.893 C 150.159 173.404,149.814 174.043,149.904 174.311 C 149.993 174.580,149.771 174.800,149.410 174.800 C 149.048 174.800,148.864 174.620,149.000 174.400 C 149.136 174.180,149.164 174.000,149.063 174.000 C 148.962 174.000,148.501 174.641,148.039 175.424 C 147.577 176.207,147.407 176.719,147.661 176.562 C 147.948 176.385,148.015 176.452,147.838 176.738 C 147.681 176.992,147.119 177.200,146.589 177.200 C 145.871 177.200,145.688 177.363,145.870 177.838 C 146.124 178.500,144.163 180.548,143.606 180.203 C 143.446 180.105,143.406 180.496,143.516 181.072 C 143.651 181.777,143.571 182.029,143.271 181.844 C 143.026 181.692,142.253 182.116,141.553 182.784 C 140.854 183.453,140.443 184.011,140.641 184.025 C 140.838 184.039,140.595 184.213,140.100 184.412 C 139.586 184.619,139.200 185.118,139.200 185.576 C 139.200 186.144,138.823 186.474,137.900 186.712 C 136.998 186.945,136.561 187.317,136.471 187.930 C 136.401 188.415,136.178 188.710,135.976 188.585 C 135.774 188.460,135.716 188.638,135.847 188.979 C 135.978 189.321,135.900 189.600,135.674 189.600 C 135.302 189.600,133.872 190.940,132.476 192.596 C 132.188 192.938,131.778 193.110,131.566 192.979 C 131.354 192.848,131.204 192.889,131.233 193.070 C 131.362 193.866,130.650 195.228,130.197 195.054 C 129.923 194.949,129.705 195.074,129.713 195.332 C 129.753 196.761,129.569 198.102,129.360 197.894 C 128.763 197.296,126.907 199.973,126.711 201.714 C 126.595 202.738,126.157 203.894,125.698 204.387 C 124.708 205.450,124.400 206.879,124.400 210.417 C 124.400 212.005,124.221 213.193,123.968 213.277 C 123.730 213.357,123.435 214.940,123.310 216.811 C 123.185 218.675,122.884 220.352,122.642 220.538 C 122.378 220.739,122.502 220.777,122.948 220.632 C 123.548 220.436,123.655 220.548,123.486 221.194 C 123.348 221.720,123.470 222.000,123.837 222.000 C 124.278 222.000,124.413 222.844,124.461 225.900 C 124.494 228.045,124.539 230.070,124.561 230.400 C 124.582 230.730,125.000 231.175,125.488 231.390 C 126.305 231.748,127.002 233.372,126.719 234.258 C 126.654 234.463,127.095 235.127,127.700 235.733 C 128.796 236.832,129.216 237.904,128.338 237.362 C 128.052 237.185,127.985 237.252,128.162 237.538 C 128.319 237.792,128.684 238.000,128.974 238.000 C 129.263 238.000,129.608 238.540,129.740 239.200 C 129.881 239.904,130.232 240.400,130.590 240.400 C 130.925 240.400,131.200 240.593,131.200 240.829 C 131.200 241.359,132.208 242.400,132.722 242.400 C 133.486 242.400,134.197 243.631,133.635 243.979 C 133.297 244.187,133.614 244.389,134.557 244.566 C 135.636 244.768,136.055 245.079,136.240 245.818 C 136.376 246.358,136.692 246.803,136.943 246.806 C 137.195 246.809,137.130 246.987,136.800 247.200 C 136.329 247.505,136.426 247.589,137.251 247.594 C 138.377 247.600,139.385 248.462,138.897 249.001 C 138.733 249.181,138.793 249.219,139.029 249.085 C 139.264 248.951,139.936 249.089,140.522 249.393 C 141.107 249.697,142.085 250.003,142.693 250.073 C 143.572 250.174,143.780 250.385,143.705 251.100 C 143.614 251.957,143.744 252.000,146.405 252.000 C 147.942 252.000,149.200 252.166,149.200 252.368 C 149.200 252.570,150.145 252.691,151.300 252.636 C 152.945 252.558,153.599 252.715,154.319 253.356 C 155.077 254.031,155.746 254.169,158.119 254.136 C 161.850 254.084,162.400 254.018,162.400 253.622 C 162.400 252.828,166.394 252.143,166.837 252.860 C 167.083 253.258,167.218 253.219,167.421 252.689 C 167.567 252.310,167.947 252.000,168.266 252.000 C 168.586 252.000,168.736 252.180,168.600 252.400 C 168.464 252.620,168.644 252.800,169.000 252.800 C 169.356 252.800,169.536 252.620,169.400 252.400 C 169.264 252.180,169.414 252.000,169.734 252.000 C 170.053 252.000,170.422 251.719,170.554 251.375 C 170.686 251.031,170.976 250.861,171.197 250.998 C 171.419 251.135,171.600 250.967,171.600 250.624 C 171.600 250.176,172.000 250.000,173.019 250.000 C 174.029 250.000,174.713 249.704,175.390 248.973 C 175.913 248.408,176.400 247.953,176.471 247.962 C 177.038 248.031,178.400 247.427,178.400 247.107 C 178.400 246.887,178.742 246.796,179.160 246.905 C 179.738 247.056,179.971 246.844,180.137 246.016 C 180.297 245.216,180.695 244.831,181.646 244.558 C 182.356 244.355,183.010 243.921,183.099 243.594 C 183.240 243.076,183.203 243.076,182.809 243.600 C 182.428 244.106,182.377 244.074,182.483 243.400 C 182.557 242.927,182.974 242.548,183.504 242.472 C 183.997 242.402,184.400 242.081,184.400 241.758 C 184.400 241.436,185.627 239.964,187.126 238.486 C 188.626 237.009,189.974 235.476,190.121 235.081 C 190.269 234.686,190.932 234.173,191.595 233.942 C 192.749 233.540,192.973 233.205,192.830 232.100 C 192.794 231.825,193.031 231.600,193.356 231.600 C 193.680 231.600,194.072 231.203,194.226 230.719 C 194.580 229.602,195.202 228.980,196.319 228.626 C 196.803 228.472,197.200 228.067,197.200 227.726 C 197.200 226.906,200.127 224.000,200.953 224.000 C 201.309 224.000,201.600 223.677,201.600 223.281 C 201.600 222.886,202.132 222.121,202.783 221.581 C 203.434 221.042,203.974 220.270,203.983 219.867 C 203.992 219.463,204.220 219.207,204.490 219.297 C 205.111 219.504,210.106 214.495,209.789 213.982 C 209.659 213.772,209.911 213.600,210.349 213.600 C 210.788 213.600,211.257 213.252,211.392 212.826 C 211.727 211.770,215.098 208.400,215.819 208.400 C 216.138 208.400,216.400 208.128,216.400 207.796 C 216.400 207.464,216.760 206.884,217.200 206.507 C 217.640 206.130,218.000 205.614,218.000 205.360 C 218.000 204.463,219.213 203.783,219.668 204.426 C 219.990 204.879,220.025 204.845,219.835 204.259 C 219.573 203.453,221.017 201.619,221.924 201.607 C 222.212 201.603,222.351 201.444,222.233 201.253 C 222.115 201.063,222.406 200.568,222.878 200.153 C 223.351 199.739,223.589 199.653,223.407 199.962 C 223.184 200.341,223.227 200.431,223.538 200.238 C 223.792 200.081,224.000 199.689,224.000 199.366 C 224.000 199.044,224.450 198.609,225.000 198.400 C 225.550 198.191,226.000 197.915,226.000 197.786 C 226.000 197.658,225.820 197.664,225.600 197.800 C 225.380 197.936,225.200 197.767,225.200 197.424 C 225.200 197.081,225.380 196.800,225.600 196.800 C 225.820 196.800,226.000 196.530,226.000 196.200 C 226.000 195.870,226.230 195.600,226.511 195.600 C 226.792 195.600,227.337 195.232,227.722 194.783 C 228.107 194.334,228.624 194.091,228.872 194.245 C 229.128 194.402,229.214 194.346,229.071 194.114 C 228.729 193.562,231.538 190.714,232.088 191.054 C 232.355 191.220,232.408 191.137,232.225 190.841 C 232.051 190.559,232.276 190.055,232.763 189.632 C 233.223 189.233,233.600 188.702,233.600 188.453 C 233.600 188.204,233.857 188.000,234.171 188.000 C 234.945 188.000,236.066 186.831,235.763 186.341 C 235.629 186.124,235.898 185.847,236.360 185.726 C 236.850 185.598,237.200 185.183,237.200 184.730 C 237.200 184.302,237.361 184.052,237.558 184.174 C 237.755 184.296,238.020 184.124,238.148 183.792 C 238.275 183.460,238.831 183.016,239.382 182.807 C 240.050 182.553,240.306 182.221,240.150 181.813 C 239.998 181.419,240.144 181.200,240.557 181.200 C 240.911 181.200,241.200 181.009,241.200 180.776 C 241.200 180.543,241.384 180.467,241.610 180.606 C 241.835 180.745,241.996 180.711,241.967 180.530 C 241.802 179.507,242.571 178.400,243.447 178.400 C 243.995 178.400,244.400 178.163,244.400 177.843 C 244.400 177.536,244.681 177.178,245.025 177.046 C 245.369 176.914,245.539 176.624,245.402 176.403 C 245.265 176.181,245.430 176.000,245.769 176.000 C 246.108 176.000,246.498 175.550,246.636 175.000 C 246.816 174.282,247.157 174.000,247.843 174.000 C 248.427 174.000,248.800 173.766,248.800 173.400 C 248.800 173.070,248.967 172.800,249.172 172.800 C 249.377 172.800,249.602 172.395,249.672 171.900 C 249.760 171.283,250.077 170.996,250.679 170.988 C 251.162 170.981,251.702 170.818,251.879 170.624 C 252.058 170.427,251.979 170.399,251.700 170.559 C 250.625 171.178,251.275 169.823,252.700 168.475 C 253.525 167.694,254.155 166.907,254.100 166.727 C 254.045 166.547,254.135 166.421,254.300 166.447 C 255.521 166.640,256.352 166.342,256.140 165.787 C 255.900 165.163,258.614 162.122,258.870 162.727 C 258.941 162.895,259.346 162.680,259.769 162.247 C 260.402 161.600,260.420 161.507,259.869 161.718 C 259.501 161.859,259.200 161.813,259.200 161.616 C 259.200 161.051,260.428 159.970,260.805 160.203 C 260.992 160.318,261.275 160.202,261.434 159.945 C 261.615 159.652,261.550 159.584,261.262 159.762 C 261.008 159.919,260.800 159.857,260.800 159.624 C 260.800 159.391,260.980 159.200,261.200 159.200 C 261.420 159.200,261.600 158.942,261.600 158.627 C 261.600 158.312,261.963 157.939,262.406 157.798 C 262.849 157.657,263.108 157.375,262.982 157.171 C 262.856 156.967,263.104 156.800,263.533 156.800 C 264.047 156.800,264.406 156.432,264.584 155.721 C 264.797 154.875,264.934 154.767,265.221 155.221 C 265.505 155.669,265.589 155.591,265.594 154.876 C 265.597 154.368,265.763 154.054,265.963 154.177 C 266.162 154.300,266.231 154.041,266.116 153.601 C 265.999 153.153,266.104 152.800,266.353 152.800 C 266.599 152.800,266.800 152.558,266.800 152.262 C 266.800 151.242,268.295 150.205,268.518 151.070 C 268.622 151.471,268.728 150.880,268.754 149.756 C 268.791 148.112,268.983 147.575,269.735 147.010 C 270.527 146.415,270.644 146.039,270.495 144.554 C 270.384 143.439,270.481 142.800,270.760 142.800 C 271.034 142.800,271.200 141.833,271.200 140.233 C 271.200 138.536,271.369 137.610,271.700 137.500 C 272.381 137.273,272.411 128.101,271.733 127.682 C 271.459 127.513,271.261 126.348,271.254 124.863 C 271.247 123.471,271.060 122.113,270.838 121.846 C 270.617 121.579,270.315 120.612,270.169 119.696 C 270.023 118.781,269.700 118.070,269.451 118.116 C 269.203 118.162,268.944 117.615,268.875 116.900 C 268.806 116.185,268.581 115.600,268.375 115.600 C 268.169 115.600,268.000 115.321,268.000 114.981 C 268.000 114.640,267.550 113.945,267.000 113.435 C 266.450 112.925,266.000 112.326,266.000 112.103 C 266.000 111.880,265.732 111.476,265.404 111.204 C 265.077 110.932,264.895 110.570,265.000 110.400 C 265.105 110.230,264.878 109.845,264.496 109.545 C 263.852 109.040,263.844 109.059,264.400 109.800 C 264.956 110.542,264.949 110.560,264.300 110.051 C 263.915 109.749,263.600 109.254,263.600 108.951 C 263.600 108.648,263.409 108.400,263.176 108.400 C 262.943 108.400,262.864 108.220,263.000 108.000 C 263.136 107.780,263.057 107.600,262.824 107.600 C 262.591 107.600,262.397 107.285,262.394 106.900 C 262.390 106.454,262.281 106.365,262.094 106.656 C 261.881 106.986,261.658 106.958,261.284 106.556 C 260.863 106.102,260.863 105.991,261.284 105.953 C 261.568 105.927,261.260 105.790,260.600 105.650 C 259.783 105.476,259.361 105.122,259.278 104.541 C 259.188 103.914,258.948 103.741,258.378 103.890 C 257.950 104.002,257.600 103.892,257.600 103.647 C 257.600 103.401,257.330 103.200,257.000 103.200 C 256.670 103.200,256.400 102.930,256.400 102.600 C 256.400 102.270,256.175 101.997,255.900 101.994 C 255.567 101.990,255.600 101.858,256.000 101.600 C 256.636 101.189,256.338 101.069,254.951 101.178 C 254.483 101.214,253.821 100.964,253.479 100.622 C 253.137 100.280,252.686 100.000,252.478 100.000 C 252.269 100.000,251.874 99.730,251.600 99.400 C 251.312 99.053,250.439 98.800,249.527 98.800 C 248.661 98.800,248.052 98.640,248.173 98.444 C 248.294 98.248,247.765 97.970,246.996 97.826 C 246.228 97.682,245.600 97.392,245.600 97.182 C 245.600 96.972,244.880 96.800,244.000 96.800 C 243.120 96.800,242.400 96.620,242.400 96.400 C 242.400 96.155,240.467 96.000,237.400 96.000 C 234.333 96.000,232.400 96.155,232.400 96.400 M52.093 99.600 C 52.093 100.370,52.175 100.685,52.276 100.300 C 52.376 99.915,52.376 99.285,52.276 98.900 C 52.175 98.515,52.093 98.830,52.093 99.600 M239.800 115.002 C 240.240 115.188,240.744 115.578,240.920 115.870 C 241.099 116.167,241.935 116.400,242.820 116.400 C 243.689 116.400,244.400 116.580,244.400 116.800 C 244.400 117.020,244.669 117.200,244.997 117.200 C 245.747 117.200,250.800 122.287,250.800 123.042 C 250.800 123.349,251.025 123.603,251.300 123.606 C 251.639 123.610,251.607 123.749,251.200 124.037 C 250.731 124.370,250.840 124.424,251.700 124.287 C 252.466 124.164,252.800 124.283,252.800 124.679 C 252.800 125.017,252.598 125.133,252.300 124.965 C 251.900 124.739,251.900 124.790,252.300 125.221 C 252.575 125.518,252.800 126.264,252.800 126.880 C 252.800 127.496,252.980 128.000,253.200 128.000 C 253.420 128.000,253.601 128.495,253.602 129.100 C 253.604 129.705,253.874 130.716,254.202 131.346 C 254.902 132.687,254.977 133.874,254.374 134.075 C 254.140 134.153,253.846 134.978,253.722 135.909 C 253.597 136.839,253.338 137.600,253.147 137.600 C 252.956 137.600,252.800 138.165,252.800 138.856 C 252.800 139.578,252.502 140.344,252.100 140.657 C 251.433 141.176,251.433 141.190,252.100 140.958 C 252.492 140.822,252.800 140.909,252.800 141.157 C 252.800 141.401,252.545 141.600,252.233 141.600 C 251.922 141.600,251.603 141.790,251.526 142.022 C 251.449 142.254,251.029 142.510,250.593 142.591 C 250.157 142.672,249.710 142.755,249.600 142.776 C 249.490 142.796,249.651 142.971,249.958 143.166 C 250.402 143.447,250.249 143.794,249.211 144.860 C 248.493 145.597,248.044 145.930,248.212 145.600 C 248.465 145.102,248.422 145.089,247.959 145.520 C 247.651 145.806,247.392 146.256,247.382 146.520 C 247.372 146.784,247.147 146.955,246.882 146.900 C 246.617 146.845,246.397 147.115,246.394 147.500 C 246.389 148.098,246.331 148.113,246.000 147.600 C 245.669 147.087,245.611 147.102,245.606 147.700 C 245.603 148.085,245.390 148.400,245.133 148.400 C 244.877 148.400,244.783 148.517,244.926 148.660 C 245.069 148.802,244.694 149.363,244.093 149.907 C 243.492 150.450,243.225 150.772,243.500 150.623 C 244.412 150.130,244.019 150.796,242.564 152.209 C 241.774 152.975,240.977 153.509,240.792 153.395 C 240.607 153.281,240.325 153.398,240.166 153.655 C 239.985 153.948,240.050 154.016,240.338 153.838 C 240.592 153.681,240.800 153.700,240.800 153.880 C 240.800 154.060,240.440 154.432,240.000 154.707 C 239.560 154.982,239.200 155.435,239.200 155.714 C 239.200 156.290,238.105 157.320,237.073 157.717 C 236.693 157.862,236.264 158.301,236.120 158.691 C 235.760 159.664,234.304 161.185,233.724 161.193 C 233.462 161.197,233.119 161.408,232.962 161.662 C 232.769 161.973,232.859 162.016,233.238 161.793 C 233.547 161.611,233.461 161.849,233.047 162.322 C 232.632 162.794,232.137 163.085,231.947 162.967 C 231.756 162.849,231.600 162.993,231.600 163.287 C 231.600 163.582,231.240 164.130,230.800 164.507 C 230.360 164.884,230.000 165.106,230.000 165.000 C 230.000 164.894,229.640 165.116,229.200 165.493 C 228.760 165.870,228.400 166.368,228.400 166.600 C 228.400 167.085,226.813 168.545,226.775 168.096 C 226.761 167.933,226.582 168.217,226.378 168.726 C 226.174 169.235,225.840 169.548,225.636 169.422 C 225.432 169.296,225.146 169.735,225.001 170.397 C 224.855 171.058,224.571 171.623,224.368 171.650 C 224.166 171.678,223.865 171.725,223.700 171.756 C 223.039 171.880,219.600 175.570,219.600 176.157 C 219.600 176.502,219.150 176.898,218.600 177.036 C 218.012 177.183,217.600 177.574,217.600 177.984 C 217.600 178.367,217.060 179.094,216.400 179.600 C 215.740 180.106,215.200 180.853,215.200 181.260 C 215.200 181.667,214.949 182.000,214.643 182.000 C 214.336 182.000,213.982 182.270,213.855 182.600 C 213.729 182.930,213.349 183.200,213.013 183.200 C 212.676 183.200,212.400 183.391,212.400 183.624 C 212.400 183.857,212.580 183.936,212.800 183.800 C 213.020 183.664,213.200 183.743,213.200 183.976 C 213.200 184.209,213.040 184.400,212.843 184.400 C 212.647 184.400,212.374 184.850,212.236 185.400 C 211.994 186.362,211.200 186.822,211.200 186.000 C 211.200 185.780,210.930 185.600,210.600 185.600 C 210.270 185.600,210.000 185.330,210.000 185.000 C 210.000 184.670,209.865 184.421,209.700 184.447 C 208.883 184.576,208.474 184.326,208.278 183.577 C 208.090 182.858,208.147 182.820,208.731 183.277 C 209.320 183.737,209.339 183.722,208.891 183.148 C 208.611 182.790,207.846 182.389,207.191 182.258 C 206.471 182.114,206.000 181.769,206.000 181.386 C 206.000 181.009,206.187 180.868,206.462 181.038 C 206.748 181.215,206.815 181.148,206.638 180.862 C 206.481 180.608,206.083 180.400,205.753 180.400 C 205.423 180.400,205.256 180.232,205.383 180.028 C 205.509 179.823,205.402 179.525,205.145 179.366 C 204.852 179.185,204.784 179.250,204.962 179.538 C 205.131 179.812,204.993 180.000,204.624 180.000 C 204.281 180.000,203.978 179.820,203.950 179.600 C 203.923 179.380,203.878 179.035,203.850 178.833 C 203.768 178.236,203.200 177.823,203.200 178.362 C 203.200 178.634,202.573 178.192,201.807 177.380 C 201.040 176.567,200.498 175.765,200.602 175.597 C 200.706 175.428,200.415 175.193,199.955 175.072 C 199.424 174.933,199.229 174.676,199.422 174.365 C 199.598 174.079,199.557 173.979,199.322 174.124 C 198.877 174.400,197.200 173.004,197.200 172.358 C 197.200 172.131,196.560 171.343,195.778 170.605 C 194.995 169.867,194.328 168.904,194.295 168.465 C 194.255 167.934,193.861 167.592,193.117 167.443 C 192.322 167.284,192.000 166.979,192.000 166.385 C 192.000 165.812,191.780 165.586,191.300 165.665 C 190.278 165.833,189.600 165.277,189.600 164.273 C 189.600 163.789,189.221 163.156,188.758 162.867 C 188.295 162.578,188.036 162.534,188.182 162.770 C 188.328 163.007,188.246 163.200,187.999 163.200 C 187.727 163.200,187.600 162.614,187.676 161.700 C 187.753 160.762,187.987 160.237,188.300 160.300 C 188.575 160.355,188.800 160.126,188.800 159.790 C 188.800 159.455,189.250 159.009,189.800 158.800 C 190.350 158.591,190.800 158.315,190.800 158.186 C 190.800 158.058,190.620 158.064,190.400 158.200 C 190.180 158.336,190.000 158.192,190.000 157.879 C 190.000 157.490,190.348 157.357,191.100 157.457 C 191.705 157.538,191.980 157.500,191.712 157.372 C 191.327 157.190,191.327 157.029,191.712 156.615 C 192.071 156.228,192.288 156.209,192.531 156.544 C 192.725 156.810,192.789 156.542,192.687 155.900 C 192.564 155.134,192.683 154.800,193.079 154.800 C 193.407 154.800,193.526 154.996,193.362 155.262 C 193.185 155.548,193.252 155.615,193.538 155.438 C 193.792 155.281,194.000 154.888,194.000 154.564 C 194.000 154.240,194.270 153.871,194.600 153.745 C 194.930 153.618,195.200 153.264,195.200 152.957 C 195.200 152.651,195.571 152.400,196.024 152.400 C 196.477 152.400,196.736 152.220,196.600 152.000 C 196.464 151.780,196.524 151.600,196.733 151.600 C 196.942 151.600,197.223 151.162,197.357 150.628 C 197.507 150.029,197.941 149.606,198.484 149.528 C 198.970 149.457,199.465 149.040,199.584 148.600 C 199.706 148.147,200.139 147.800,200.582 147.800 C 201.082 147.800,201.455 147.439,201.617 146.800 C 201.757 146.250,202.080 145.845,202.335 145.900 C 202.591 145.955,202.755 145.783,202.700 145.518 C 202.645 145.253,202.870 145.028,203.200 145.018 C 203.530 145.008,203.822 144.775,203.850 144.500 C 203.878 144.225,203.923 143.730,203.950 143.400 C 203.978 143.070,204.230 142.800,204.512 142.800 C 204.793 142.800,205.276 142.450,205.585 142.021 C 205.893 141.593,206.293 141.334,206.473 141.445 C 206.653 141.556,206.800 141.306,206.800 140.889 C 206.800 140.133,210.219 136.600,210.950 136.600 C 211.161 136.600,211.361 136.235,211.393 135.789 C 211.459 134.893,219.181 126.939,219.232 127.715 C 219.249 127.982,219.444 127.705,219.665 127.100 C 219.886 126.495,220.232 126.000,220.433 126.000 C 220.635 126.000,220.800 125.831,220.800 125.625 C 220.800 125.418,221.340 124.658,222.000 123.936 C 222.660 123.213,223.200 122.404,223.200 122.137 C 223.200 121.871,223.695 121.596,224.300 121.527 C 224.944 121.452,225.408 121.151,225.418 120.800 C 225.428 120.470,225.667 120.249,225.948 120.310 C 226.229 120.370,226.345 120.234,226.204 120.007 C 226.064 119.780,226.276 119.473,226.675 119.325 C 227.074 119.177,227.766 118.638,228.213 118.128 C 229.099 117.116,230.216 116.910,230.535 117.700 C 230.646 117.975,230.751 117.795,230.768 117.300 C 230.795 116.547,231.025 116.400,232.180 116.400 C 232.939 116.400,233.704 116.175,233.880 115.900 C 234.681 114.648,237.831 114.170,239.800 115.002 M349.552 119.687 C 349.737 120.798,349.793 120.855,349.919 120.054 C 350.001 119.533,349.903 118.943,349.701 118.741 C 349.479 118.519,349.421 118.893,349.552 119.687 M251.200 146.200 C 251.200 146.530,250.936 146.800,250.613 146.800 C 250.255 146.800,250.115 146.565,250.255 146.200 C 250.382 145.870,250.646 145.600,250.843 145.600 C 251.039 145.600,251.200 145.870,251.200 146.200 M179.200 146.400 C 179.200 146.620,178.705 146.787,178.100 146.772 C 177.125 146.747,177.091 146.705,177.800 146.400 C 178.893 145.931,179.200 145.931,179.200 146.400 M174.800 150.776 C 174.800 151.248,174.020 151.753,173.733 151.467 C 173.447 151.180,173.952 150.400,174.424 150.400 C 174.631 150.400,174.800 150.569,174.800 150.776 M246.602 150.803 C 246.739 151.024,246.562 151.317,246.208 151.452 C 245.442 151.746,245.015 151.422,245.384 150.827 C 245.716 150.289,246.278 150.278,246.602 150.803 M244.000 153.600 C 244.000 153.820,243.730 154.000,243.400 154.000 C 243.070 154.000,242.800 153.820,242.800 153.600 C 242.800 153.380,243.070 153.200,243.400 153.200 C 243.730 153.200,244.000 153.380,244.000 153.600 M170.000 155.800 C 170.000 156.130,169.736 156.400,169.413 156.400 C 169.055 156.400,168.915 156.165,169.055 155.800 C 169.182 155.470,169.446 155.200,169.643 155.200 C 169.839 155.200,170.000 155.470,170.000 155.800 M241.600 155.800 C 241.600 156.130,241.336 156.400,241.013 156.400 C 240.655 156.400,240.515 156.165,240.655 155.800 C 240.782 155.470,241.046 155.200,241.243 155.200 C 241.439 155.200,241.600 155.470,241.600 155.800 M357.373 173.800 C 357.373 179.300,357.430 181.605,357.499 178.923 C 357.568 176.241,357.568 171.741,357.499 168.923 C 357.430 166.105,357.374 168.300,357.373 173.800 M227.429 170.609 C 226.607 171.230,226.148 171.132,226.584 170.427 C 226.729 170.192,227.152 170.006,227.524 170.013 C 228.117 170.024,228.106 170.097,227.429 170.609 M224.800 174.600 C 224.800 174.930,224.631 175.200,224.424 175.200 C 223.919 175.200,223.558 174.575,223.878 174.256 C 224.328 173.805,224.800 173.981,224.800 174.600 M222.300 177.433 C 221.919 177.815,221.155 177.197,221.439 176.738 C 221.607 176.464,221.831 176.471,222.118 176.758 C 222.354 176.994,222.436 177.298,222.300 177.433 M219.680 180.080 C 219.307 180.453,219.090 180.450,218.703 180.063 C 218.308 179.668,218.327 179.492,218.800 179.200 C 219.602 178.704,220.329 179.431,219.680 180.080 M123.701 210.600 C 123.705 211.480,123.787 211.793,123.883 211.295 C 123.979 210.798,123.975 210.078,123.875 209.695 C 123.775 209.313,123.696 209.720,123.701 210.600 M123.720 225.600 C 123.720 226.810,123.795 227.305,123.887 226.700 C 123.978 226.095,123.978 225.105,123.887 224.500 C 123.795 223.895,123.720 224.390,123.720 225.600 M149.200 369.186 C 149.200 369.414,149.457 369.600,149.771 369.600 C 150.085 369.600,150.424 369.915,150.524 370.300 C 150.693 370.946,150.711 370.947,150.754 370.314 C 150.779 369.937,150.440 369.435,150.000 369.200 C 149.458 368.910,149.200 368.905,149.200 369.186 " stroke="none" fill="#ffffff" fill-rule="evenodd"></path><path id="path1" d="M182.929 4.272 C 182.450 4.369,181.843 4.707,181.580 5.024 C 181.206 5.475,179.873 5.602,175.451 5.610 C 169.611 5.619,166.904 5.984,166.380 6.833 C 166.213 7.103,165.479 7.307,164.750 7.286 C 164.020 7.265,163.238 7.399,163.012 7.583 C 162.785 7.767,161.700 8.006,160.600 8.115 C 158.486 8.323,155.600 9.215,155.600 9.660 C 155.600 9.979,151.711 10.589,150.643 10.437 C 150.210 10.376,149.521 10.788,149.034 11.398 C 148.327 12.285,147.861 12.467,146.291 12.467 C 145.251 12.467,144.400 12.632,144.400 12.833 C 144.400 13.035,144.128 13.200,143.796 13.200 C 143.464 13.200,142.903 13.538,142.550 13.950 C 142.149 14.418,141.600 14.620,141.091 14.487 C 140.538 14.343,140.367 14.423,140.561 14.737 C 140.756 15.052,140.423 15.202,139.524 15.205 C 137.731 15.213,136.361 15.613,136.631 16.050 C 136.753 16.248,136.297 16.521,135.618 16.656 C 134.939 16.792,134.286 17.060,134.168 17.252 C 134.050 17.443,133.600 17.600,133.168 17.600 C 132.737 17.600,131.671 18.050,130.800 18.600 C 129.929 19.150,128.953 19.600,128.632 19.600 C 128.310 19.600,127.934 19.783,127.796 20.007 C 127.658 20.230,127.390 20.317,127.201 20.201 C 127.012 20.084,126.750 20.329,126.617 20.745 C 126.417 21.376,123.103 22.444,122.969 21.921 C 122.952 21.854,122.353 22.385,121.638 23.100 C 120.923 23.815,119.857 24.507,119.269 24.637 C 117.177 25.101,116.791 25.262,116.991 25.585 C 117.240 25.988,115.457 27.200,114.614 27.200 C 114.276 27.200,114.000 27.359,114.000 27.553 C 114.000 27.748,113.685 28.014,113.300 28.145 C 112.295 28.488,106.944 31.998,107.410 32.009 C 108.080 32.024,105.837 33.582,105.131 33.591 C 104.763 33.596,103.922 34.140,103.262 34.800 C 102.602 35.460,101.823 36.005,101.531 36.011 C 101.239 36.017,100.550 36.642,100.000 37.400 C 99.450 38.158,98.841 38.783,98.646 38.789 C 98.451 38.795,97.909 39.205,97.442 39.700 C 96.975 40.195,95.806 41.230,94.844 42.000 C 93.882 42.770,92.631 43.850,92.065 44.400 C 91.499 44.950,90.938 45.403,90.818 45.406 C 90.439 45.417,88.400 47.619,88.400 48.018 C 88.400 48.228,88.199 48.400,87.954 48.400 C 87.439 48.400,83.600 52.322,83.600 52.848 C 83.600 53.042,83.406 53.200,83.169 53.200 C 82.724 53.200,79.600 56.182,79.600 56.606 C 79.600 56.737,79.061 57.419,78.402 58.122 C 77.743 58.825,77.203 59.532,77.202 59.693 C 77.201 59.854,76.569 60.635,75.799 61.428 C 75.028 62.222,74.288 63.305,74.155 63.836 C 74.022 64.366,73.695 64.800,73.429 64.800 C 72.811 64.800,71.364 66.454,71.012 67.562 C 70.864 68.029,70.601 68.324,70.428 68.217 C 70.255 68.110,69.773 68.688,69.357 69.501 C 68.465 71.242,68.088 71.781,66.956 72.938 C 66.491 73.412,65.984 74.205,65.829 74.700 C 65.673 75.195,65.393 75.600,65.205 75.600 C 65.017 75.600,64.742 76.153,64.594 76.829 C 64.445 77.504,64.222 77.955,64.097 77.830 C 63.765 77.499,62.400 79.885,62.400 80.796 C 62.400 81.515,60.815 82.812,60.788 82.114 C 60.777 81.822,59.872 83.156,59.779 83.600 C 59.757 83.710,59.597 84.475,59.424 85.300 C 59.252 86.125,58.883 86.800,58.604 86.800 C 57.822 86.800,57.234 87.726,57.127 89.127 C 57.073 89.827,56.888 90.400,56.715 90.400 C 56.542 90.400,56.400 90.642,56.400 90.938 C 56.400 91.234,56.040 91.802,55.600 92.200 C 55.160 92.598,54.800 93.264,54.800 93.679 C 54.800 94.094,54.446 94.813,54.014 95.277 C 53.581 95.741,53.322 96.274,53.437 96.461 C 53.553 96.647,53.465 96.800,53.242 96.800 C 53.019 96.800,52.728 97.475,52.595 98.300 C 52.120 101.257,52.000 101.575,51.445 101.362 C 50.888 101.148,50.455 102.221,50.151 104.571 C 50.067 105.215,49.639 106.077,49.200 106.486 C 48.760 106.896,48.400 107.494,48.400 107.816 C 48.400 108.137,48.220 108.400,48.000 108.400 C 47.778 108.400,47.600 109.462,47.600 110.786 C 47.600 113.079,46.708 114.575,45.851 113.718 C 45.712 113.579,45.612 113.900,45.629 114.432 C 45.690 116.294,45.085 120.000,44.720 120.000 C 44.518 120.000,44.460 120.174,44.592 120.387 C 44.723 120.600,44.464 121.003,44.016 121.283 C 43.327 121.713,43.200 122.209,43.200 124.473 C 43.200 125.947,43.020 127.264,42.800 127.400 C 42.580 127.536,42.400 127.984,42.400 128.395 C 42.400 128.806,42.152 129.391,41.849 129.694 C 41.217 130.326,40.344 133.986,40.692 134.549 C 40.819 134.755,40.739 134.809,40.513 134.670 C 40.250 134.508,40.082 135.364,40.046 137.049 C 40.011 138.645,39.755 140.015,39.394 140.530 C 39.041 141.034,38.800 142.283,38.800 143.609 C 38.800 144.836,38.599 146.041,38.353 146.287 C 37.765 146.875,37.811 193.699,38.401 194.801 C 38.620 195.212,38.800 196.180,38.800 196.954 C 38.800 197.734,39.047 198.503,39.355 198.680 C 39.689 198.872,39.994 199.959,40.118 201.400 C 40.485 205.668,41.270 209.363,41.909 209.830 C 42.358 210.159,42.507 210.900,42.453 212.541 C 42.410 213.866,42.549 214.800,42.790 214.800 C 43.019 214.800,43.200 215.748,43.200 216.951 C 43.200 218.375,43.403 219.270,43.800 219.600 C 44.130 219.874,44.400 220.346,44.400 220.649 C 44.400 220.952,44.554 221.200,44.743 221.200 C 44.932 221.200,45.202 222.305,45.343 223.656 C 45.586 225.987,46.460 227.457,47.296 226.941 C 47.463 226.837,47.600 227.933,47.600 229.376 C 47.600 230.859,47.774 232.000,48.000 232.000 C 48.220 232.000,48.400 232.272,48.400 232.604 C 48.400 232.936,48.760 233.516,49.200 233.893 C 49.640 234.270,50.000 235.020,50.000 235.560 C 50.000 236.939,50.869 239.286,51.644 240.002 C 52.003 240.333,52.427 241.377,52.587 242.322 C 52.751 243.295,53.276 244.421,53.797 244.919 C 54.591 245.679,54.869 246.547,55.266 249.500 C 55.303 249.775,55.508 250.000,55.723 250.000 C 56.422 250.000,57.174 251.373,57.187 252.671 C 57.196 253.535,57.515 254.190,58.186 254.718 C 59.081 255.422,60.190 258.477,59.721 258.946 C 59.619 259.048,60.180 259.438,60.968 259.811 C 62.251 260.421,62.400 260.654,62.400 262.058 C 62.400 263.082,62.608 263.705,63.000 263.855 C 63.330 263.982,63.600 264.336,63.600 264.643 C 63.600 264.949,63.773 265.200,63.985 265.200 C 64.196 265.200,64.561 265.914,64.796 266.787 C 65.031 267.659,65.504 268.531,65.848 268.723 C 66.191 268.915,66.471 269.187,66.471 269.327 C 66.468 270.258,66.958 271.151,67.345 270.919 C 67.595 270.769,67.555 270.949,67.255 271.318 C 66.791 271.891,66.801 272.025,67.324 272.226 C 67.909 272.451,69.353 274.954,69.385 275.800 C 69.393 276.020,69.640 276.200,69.932 276.200 C 70.665 276.200,71.593 277.554,71.330 278.239 C 71.211 278.547,71.314 278.800,71.557 278.800 C 71.801 278.800,72.000 279.004,72.000 279.254 C 72.000 279.504,72.450 280.125,73.000 280.635 C 73.550 281.145,74.000 281.648,74.000 281.753 C 74.000 281.858,74.720 283.027,75.600 284.352 C 76.480 285.677,77.200 286.929,77.200 287.134 C 77.200 287.339,77.560 287.601,78.000 287.716 C 78.479 287.841,78.800 288.262,78.800 288.763 C 78.800 289.223,79.115 289.918,79.500 290.307 C 80.554 291.371,81.600 293.096,81.600 293.772 C 81.600 294.102,81.958 294.564,82.396 294.798 C 83.230 295.244,84.515 297.352,84.165 297.701 C 84.054 297.813,84.421 298.019,84.981 298.160 C 85.542 298.300,86.000 298.650,86.000 298.938 C 86.000 299.225,86.435 299.869,86.966 300.368 C 87.498 300.867,88.050 301.744,88.193 302.316 C 88.337 302.889,89.055 303.869,89.788 304.496 C 90.522 305.123,91.233 306.077,91.369 306.618 C 91.504 307.158,91.882 307.600,92.208 307.600 C 92.533 307.600,92.800 307.870,92.800 308.200 C 92.800 308.530,92.991 308.800,93.224 308.800 C 93.457 308.800,93.535 308.981,93.398 309.203 C 93.261 309.424,93.476 309.729,93.875 309.880 C 94.889 310.265,95.600 311.035,95.600 311.749 C 95.600 312.082,96.000 312.635,96.489 312.977 C 96.978 313.320,97.262 313.600,97.119 313.600 C 96.795 313.600,98.243 315.342,99.700 316.704 C 100.305 317.269,100.800 317.968,100.800 318.257 C 100.800 318.545,101.250 319.076,101.800 319.437 C 102.350 319.797,102.800 320.431,102.800 320.846 C 102.800 321.261,103.030 321.600,103.311 321.600 C 103.885 321.600,105.200 322.996,105.200 323.605 C 105.200 323.822,105.650 324.000,106.200 324.000 C 106.919 324.000,107.200 324.215,107.200 324.768 C 107.200 325.870,108.403 327.809,109.351 328.235 C 109.797 328.436,110.310 329.185,110.492 329.900 C 110.727 330.824,111.055 331.200,111.624 331.200 C 112.065 331.200,112.544 331.515,112.690 331.900 C 113.030 332.798,113.823 333.600,114.371 333.600 C 114.607 333.600,114.800 333.870,114.800 334.200 C 114.800 334.530,114.991 334.800,115.224 334.800 C 115.457 334.800,115.536 334.980,115.400 335.200 C 115.264 335.420,115.504 335.600,115.933 335.600 C 116.441 335.600,116.805 335.965,116.976 336.648 C 117.265 337.798,118.101 338.800,118.771 338.800 C 119.007 338.800,119.200 339.026,119.200 339.302 C 119.200 339.579,119.740 340.044,120.400 340.336 C 121.061 340.628,121.600 341.175,121.600 341.554 C 121.600 342.508,122.390 343.200,123.480 343.200 C 124.031 343.200,124.400 343.441,124.400 343.800 C 124.400 344.130,125.390 345.367,126.600 346.548 C 127.810 347.730,128.800 348.786,128.800 348.896 C 128.800 349.089,132.411 352.800,132.599 352.800 C 132.711 352.800,141.681 361.382,143.422 363.156 C 144.094 363.840,144.840 364.400,145.079 364.400 C 145.318 364.400,145.626 364.847,145.763 365.394 C 145.917 366.007,146.393 366.483,147.006 366.637 C 147.553 366.774,148.000 367.143,148.000 367.457 C 148.000 367.770,148.630 368.399,149.400 368.853 C 150.170 369.307,150.800 369.937,150.800 370.252 C 150.800 370.567,151.115 370.941,151.500 371.083 C 151.885 371.225,152.290 371.445,152.400 371.571 C 152.971 372.225,156.007 374.400,156.350 374.400 C 156.568 374.400,156.863 374.767,157.005 375.216 C 157.159 375.701,157.739 376.128,158.432 376.266 C 159.074 376.395,159.600 376.720,159.600 376.989 C 159.600 377.722,160.880 379.048,161.900 379.370 C 162.395 379.526,162.800 379.912,162.800 380.227 C 162.800 380.542,162.964 380.800,163.165 380.800 C 163.366 380.800,164.546 381.823,165.786 383.074 C 167.933 385.237,168.781 385.884,170.600 386.744 C 171.040 386.952,171.665 387.500,171.988 387.961 C 172.312 388.422,172.857 388.800,173.200 388.800 C 173.543 388.800,174.083 389.160,174.400 389.600 C 174.717 390.040,175.130 390.400,175.317 390.400 C 175.744 390.400,176.795 391.432,176.815 391.871 C 176.824 392.052,177.544 392.693,178.415 393.296 C 179.287 393.899,180.000 394.664,180.000 394.996 C 180.000 395.362,180.367 395.600,180.930 395.600 C 181.442 395.600,182.283 396.050,182.800 396.600 C 183.317 397.150,184.041 397.600,184.410 397.600 C 184.779 397.600,185.494 398.140,186.000 398.800 C 186.506 399.460,187.171 400.000,187.479 400.000 C 187.787 400.000,188.435 400.405,188.921 400.900 C 189.972 401.973,191.376 402.800,192.145 402.800 C 192.450 402.800,192.808 403.340,192.940 404.000 C 193.117 404.883,193.405 405.200,194.032 405.200 C 194.501 405.200,195.239 405.650,195.671 406.200 C 196.381 407.102,196.739 407.199,199.329 407.194 C 202.376 407.187,202.390 407.180,206.000 403.907 C 206.550 403.408,207.481 402.752,208.070 402.449 C 208.658 402.146,209.246 401.471,209.377 400.949 C 209.526 400.357,209.908 400.000,210.394 400.000 C 210.822 400.000,211.725 399.460,212.400 398.800 C 213.075 398.140,213.891 397.600,214.214 397.600 C 214.536 397.600,214.800 397.423,214.800 397.208 C 214.800 396.992,215.250 396.702,215.800 396.564 C 216.350 396.426,216.800 396.033,216.800 395.690 C 216.800 395.347,216.910 395.177,217.044 395.311 C 217.179 395.446,217.735 395.026,218.280 394.378 C 218.825 393.730,219.529 393.200,219.844 393.200 C 220.159 393.200,220.622 392.750,220.873 392.200 C 221.123 391.650,221.555 391.200,221.831 391.200 C 222.107 391.200,222.393 391.065,222.467 390.900 C 222.625 390.543,226.098 387.653,227.394 386.800 C 229.199 385.611,231.437 383.771,233.400 381.863 C 234.500 380.793,235.805 379.645,236.300 379.313 C 236.795 378.980,237.200 378.549,237.200 378.354 C 237.200 377.777,238.751 376.400,239.400 376.400 C 239.730 376.400,240.000 376.127,240.000 375.794 C 240.000 375.461,240.585 374.832,241.300 374.398 C 242.015 373.963,242.592 373.470,242.582 373.304 C 242.572 373.137,243.238 372.436,244.063 371.748 C 244.887 371.059,245.450 370.384,245.314 370.248 C 245.178 370.111,245.373 370.000,245.748 370.000 C 246.123 370.000,247.274 369.190,248.308 368.200 C 249.341 367.210,250.325 366.400,250.495 366.400 C 250.665 366.400,252.393 364.780,254.336 362.800 C 256.278 360.820,258.078 359.200,258.334 359.200 C 258.590 359.200,258.800 359.010,258.800 358.778 C 258.800 358.546,259.339 357.781,259.998 357.078 C 260.657 356.375,261.197 355.665,261.198 355.500 C 261.199 355.335,261.376 355.200,261.591 355.200 C 262.092 355.200,273.200 344.059,273.200 343.557 C 273.200 343.350,273.651 343.009,274.203 342.799 C 274.755 342.589,275.176 342.279,275.139 342.109 C 275.006 341.490,275.790 340.169,277.080 338.839 C 277.806 338.090,278.400 337.325,278.400 337.139 C 278.400 336.952,278.670 336.800,279.000 336.800 C 279.330 336.800,279.603 336.665,279.606 336.500 C 279.617 335.989,281.880 333.600,282.353 333.600 C 282.599 333.600,282.800 333.412,282.800 333.182 C 282.800 332.952,283.237 332.327,283.771 331.793 C 284.305 331.259,285.064 330.277,285.457 329.611 C 285.851 328.945,286.409 328.400,286.699 328.400 C 286.988 328.400,287.344 328.085,287.490 327.700 C 287.830 326.802,288.623 326.000,289.171 326.000 C 289.407 326.000,289.600 325.730,289.600 325.400 C 289.600 325.070,289.780 324.800,290.000 324.800 C 290.220 324.800,290.400 324.467,290.400 324.060 C 290.400 323.653,290.940 322.906,291.600 322.400 C 292.301 321.863,292.800 321.109,292.800 320.587 C 292.800 320.030,293.101 319.615,293.598 319.485 C 294.037 319.370,294.510 318.979,294.649 318.617 C 294.788 318.255,295.599 317.210,296.451 316.297 C 297.303 315.383,298.000 314.492,298.000 314.318 C 298.000 314.143,298.226 314.000,298.502 314.000 C 298.779 314.000,299.258 313.415,299.567 312.700 C 300.113 311.439,301.377 309.739,303.412 307.526 C 303.955 306.935,304.400 306.273,304.400 306.055 C 304.400 305.836,304.934 305.240,305.587 304.729 C 306.240 304.218,306.833 303.418,306.904 302.952 C 306.975 302.487,307.611 301.528,308.317 300.822 C 309.022 300.116,309.600 299.277,309.600 298.957 C 309.600 298.637,309.870 298.271,310.200 298.145 C 310.530 298.018,310.800 297.746,310.800 297.540 C 310.800 297.335,310.982 296.949,311.205 296.683 C 312.655 294.952,314.000 293.030,314.000 292.688 C 314.000 292.467,314.540 291.771,315.200 291.140 C 315.860 290.509,316.400 289.725,316.400 289.397 C 316.400 289.068,316.580 288.800,316.800 288.800 C 317.020 288.800,317.200 288.555,317.200 288.256 C 317.200 287.957,317.650 287.374,318.200 286.961 C 318.750 286.548,319.200 285.991,319.200 285.723 C 319.200 285.455,319.628 284.808,320.152 284.284 C 320.676 283.761,321.237 282.897,321.398 282.366 C 321.560 281.835,322.077 280.860,322.546 280.200 C 323.016 279.540,323.755 278.304,324.188 277.454 C 324.621 276.603,325.206 275.819,325.488 275.711 C 325.770 275.603,326.000 275.025,326.000 274.427 C 326.000 273.784,326.409 272.955,327.000 272.400 C 327.550 271.883,328.000 271.222,328.000 270.930 C 328.000 270.639,328.180 270.400,328.400 270.400 C 328.620 270.400,328.800 269.888,328.800 269.262 C 328.800 268.629,329.238 267.614,329.787 266.975 C 330.330 266.344,330.885 265.324,331.020 264.710 C 331.155 264.096,331.397 263.674,331.558 263.774 C 331.949 264.016,334.000 260.820,334.000 259.969 C 334.000 259.600,334.266 259.077,334.592 258.807 C 334.917 258.537,335.301 257.435,335.443 256.358 C 335.643 254.852,335.866 254.400,336.409 254.400 C 337.191 254.400,337.600 253.633,337.600 252.167 C 337.600 251.635,337.780 251.200,338.000 251.200 C 338.220 251.200,338.400 250.987,338.400 250.726 C 338.400 250.465,338.763 249.865,339.207 249.392 C 339.651 248.920,340.235 247.468,340.505 246.167 C 340.809 244.702,341.340 243.478,341.898 242.954 C 342.394 242.489,342.800 241.662,342.800 241.116 C 342.800 240.046,343.882 237.570,344.541 237.132 C 344.763 236.984,345.024 235.769,345.120 234.432 C 345.217 233.094,345.426 232.000,345.584 232.000 C 346.233 232.000,347.982 227.513,348.001 225.800 C 348.009 225.075,348.383 224.250,348.948 223.715 C 349.733 222.971,349.889 222.405,349.927 220.148 C 349.968 217.742,350.096 217.339,351.171 216.230 C 352.317 215.047,352.374 214.823,352.484 211.008 C 352.586 207.491,352.694 206.973,353.400 206.611 C 354.349 206.124,354.345 206.148,354.668 199.000 C 354.896 193.957,355.014 193.277,355.860 192.162 C 356.679 191.084,356.800 190.478,356.800 187.462 C 356.800 185.558,356.935 184.000,357.100 184.000 C 357.706 184.001,356.797 151.059,356.171 150.369 C 355.857 150.021,355.600 149.526,355.600 149.269 C 355.600 149.011,355.448 148.800,355.262 148.800 C 355.076 148.800,354.805 146.145,354.659 142.900 C 354.317 135.312,354.354 135.539,353.300 134.587 C 352.478 133.845,352.400 133.418,352.400 129.687 C 352.400 127.439,352.234 125.600,352.032 125.600 C 351.829 125.600,351.545 125.060,351.400 124.400 C 351.255 123.740,350.917 123.200,350.649 123.200 C 350.251 123.200,349.308 119.600,349.109 117.317 C 349.086 117.052,348.827 116.742,348.533 116.630 C 348.228 116.513,348.000 115.821,348.000 115.013 C 348.000 114.236,347.820 113.600,347.600 113.600 C 347.380 113.600,347.200 113.255,347.200 112.832 C 347.200 111.965,345.958 109.606,345.500 109.603 C 345.335 109.601,345.200 108.982,345.200 108.226 C 345.200 106.531,344.568 104.755,343.742 104.126 C 343.394 103.861,343.005 102.717,342.860 101.532 C 342.640 99.735,342.431 99.330,341.500 98.883 C 340.553 98.430,340.400 98.118,340.400 96.640 C 340.400 94.948,339.549 93.600,338.481 93.600 C 338.230 93.600,338.122 93.348,338.240 93.040 C 338.358 92.733,338.262 92.362,338.027 92.217 C 337.792 92.072,337.600 91.427,337.600 90.784 C 337.600 89.881,337.380 89.560,336.633 89.372 C 335.822 89.169,335.620 88.801,335.387 87.103 C 335.198 85.728,334.801 84.792,334.154 84.192 C 333.629 83.706,333.200 83.014,333.200 82.654 C 333.200 82.294,333.065 82.029,332.900 82.064 C 332.244 82.202,331.200 81.479,331.200 80.886 C 331.200 79.901,330.278 77.600,329.884 77.600 C 329.254 77.600,328.027 75.828,328.013 74.900 C 328.006 74.405,327.807 74.000,327.571 74.000 C 326.980 74.000,326.003 72.970,325.987 72.329 C 325.969 71.639,324.596 70.000,324.036 70.000 C 323.796 70.000,323.600 69.796,323.600 69.546 C 323.600 69.296,323.150 68.675,322.600 68.165 C 322.050 67.655,321.600 66.990,321.600 66.688 C 321.600 65.973,319.235 62.400,318.762 62.400 C 318.563 62.400,318.400 62.207,318.400 61.971 C 318.400 61.381,317.352 60.382,317.049 60.684 C 316.914 60.819,316.608 60.368,316.368 59.681 C 316.129 58.995,315.588 58.323,315.167 58.189 C 314.745 58.056,314.400 57.801,314.400 57.624 C 314.400 57.149,310.512 53.221,310.276 53.458 C 310.164 53.569,309.954 53.287,309.810 52.830 C 309.665 52.374,309.378 52.000,309.173 52.000 C 308.968 52.000,308.800 51.751,308.800 51.447 C 308.800 51.142,308.427 50.796,307.970 50.676 C 307.514 50.557,307.042 50.084,306.923 49.625 C 306.803 49.167,306.274 48.683,305.749 48.551 C 305.186 48.410,304.694 47.918,304.553 47.356 C 304.421 46.830,304.129 46.400,303.904 46.400 C 303.679 46.400,302.909 45.779,302.193 45.020 C 301.478 44.262,300.782 43.752,300.646 43.887 C 300.511 44.023,300.400 43.923,300.400 43.667 C 300.400 43.410,300.130 43.200,299.800 43.200 C 299.470 43.200,299.200 43.007,299.200 42.771 C 299.200 42.188,298.170 41.200,297.562 41.200 C 297.290 41.200,297.188 41.078,297.337 40.930 C 297.647 40.620,296.057 38.800,295.476 38.800 C 295.265 38.800,294.694 38.370,294.207 37.845 C 293.720 37.320,292.795 36.775,292.152 36.633 C 291.505 36.491,290.486 35.755,289.873 34.988 C 289.264 34.225,288.544 33.600,288.272 33.600 C 288.000 33.600,287.492 33.285,287.142 32.900 C 286.220 31.884,283.479 29.820,283.005 29.785 C 282.147 29.720,280.970 29.005,280.271 28.121 C 279.870 27.615,279.141 27.200,278.651 27.200 C 278.161 27.200,277.544 26.984,277.280 26.720 C 277.016 26.456,276.800 26.379,276.800 26.549 C 276.800 26.718,276.530 26.587,276.200 26.257 C 275.870 25.927,275.600 25.464,275.600 25.229 C 275.600 24.993,275.251 24.800,274.824 24.800 C 274.397 24.800,273.936 24.620,273.800 24.400 C 273.664 24.180,273.231 24.000,272.838 24.000 C 272.444 24.000,271.690 23.617,271.161 23.149 C 270.633 22.681,269.607 22.046,268.883 21.737 C 268.158 21.428,267.475 20.940,267.365 20.654 C 267.163 20.126,267.031 20.079,265.143 19.864 C 264.561 19.797,263.783 19.441,263.414 19.071 C 263.045 18.702,262.486 18.400,262.171 18.400 C 261.857 18.400,261.600 18.220,261.600 18.000 C 261.600 17.780,261.234 17.600,260.786 17.600 C 259.978 17.600,258.038 16.555,257.541 15.852 C 257.399 15.651,256.139 15.356,254.741 15.198 C 253.343 15.039,252.359 14.885,252.554 14.855 C 252.927 14.797,251.605 13.742,250.103 12.900 C 249.612 12.625,248.398 12.400,247.405 12.400 C 246.073 12.400,245.367 12.167,244.711 11.511 C 244.222 11.022,243.547 10.589,243.211 10.549 C 242.875 10.508,241.399 10.356,239.932 10.209 C 238.181 10.035,237.188 9.747,237.044 9.372 C 236.924 9.057,236.470 8.800,236.036 8.800 C 235.602 8.800,235.136 8.620,235.000 8.400 C 234.864 8.180,233.683 8.000,232.376 8.000 C 230.953 8.000,230.000 7.828,230.000 7.571 C 230.000 7.336,229.575 7.198,229.056 7.267 C 228.536 7.335,227.825 7.153,227.475 6.862 C 226.690 6.211,225.850 6.089,219.800 5.749 C 217.160 5.601,214.910 5.372,214.800 5.240 C 213.906 4.167,212.354 4.058,198.351 4.076 C 190.348 4.087,183.408 4.175,182.929 4.272 M195.600 46.135 C 195.600 45.935,195.960 45.771,196.400 45.771 C 196.840 45.771,197.200 45.923,197.200 46.109 C 197.200 46.295,197.412 46.316,197.671 46.156 C 198.390 45.712,200.962 45.740,201.300 46.196 C 201.500 46.465,201.700 46.466,201.900 46.200 C 202.236 45.752,203.600 45.547,203.599 45.944 C 203.599 46.085,206.223 46.146,209.430 46.079 C 214.528 45.973,215.471 46.056,216.931 46.736 C 218.397 47.420,220.994 47.895,225.000 48.214 C 226.556 48.338,227.719 48.806,228.120 49.470 C 228.316 49.794,229.199 50.000,230.396 50.000 C 231.472 50.000,232.464 50.180,232.600 50.400 C 232.736 50.620,233.657 50.800,234.647 50.800 C 235.754 50.800,236.351 50.955,236.198 51.203 C 235.956 51.595,236.950 52.894,237.392 52.764 C 237.959 52.597,241.663 53.271,241.435 53.498 C 241.056 53.878,243.969 55.200,245.182 55.200 C 246.336 55.200,248.126 56.273,247.814 56.777 C 247.704 56.955,248.331 57.215,249.207 57.355 C 250.083 57.495,250.800 57.745,250.800 57.910 C 250.800 58.242,253.739 59.600,254.456 59.600 C 254.933 59.600,256.799 61.590,256.800 62.100 C 256.800 62.265,257.531 62.400,258.424 62.400 C 259.468 62.400,259.954 62.552,259.784 62.825 C 259.432 63.396,260.746 64.800,261.633 64.800 C 262.023 64.800,262.674 65.222,263.080 65.738 C 263.488 66.256,264.468 66.799,265.268 66.949 C 266.329 67.148,266.781 67.469,266.950 68.142 C 267.077 68.649,267.815 69.405,268.591 69.823 C 269.366 70.240,270.000 70.701,270.000 70.848 C 270.000 70.994,270.430 71.221,270.956 71.353 C 271.499 71.490,272.010 71.985,272.139 72.501 C 272.265 73.000,272.959 73.754,273.684 74.178 C 274.408 74.601,275.854 75.814,276.898 76.874 C 277.942 77.933,278.943 78.800,279.123 78.800 C 279.511 78.800,281.600 80.923,281.600 81.317 C 281.600 81.829,282.976 83.200,283.489 83.200 C 283.770 83.200,284.000 83.547,284.000 83.971 C 284.000 84.395,284.450 85.096,285.000 85.529 C 285.550 85.961,286.000 86.560,286.000 86.860 C 286.000 87.160,286.540 87.644,287.200 87.936 C 288.056 88.315,288.400 88.744,288.400 89.434 C 288.400 89.965,288.571 90.400,288.779 90.400 C 289.305 90.400,291.200 92.201,291.200 92.700 C 291.200 92.924,291.656 93.407,292.213 93.772 C 292.770 94.137,293.127 94.595,293.006 94.790 C 292.886 94.985,292.970 95.258,293.193 95.396 C 293.417 95.534,293.600 95.997,293.600 96.424 C 293.600 96.851,293.870 97.200,294.200 97.200 C 294.555 97.200,294.801 97.568,294.803 98.100 C 294.804 98.673,295.298 99.336,296.163 99.924 C 297.102 100.564,297.599 101.272,297.778 102.224 C 297.920 102.981,298.167 103.600,298.327 103.600 C 298.487 103.600,298.974 104.274,299.409 105.097 C 300.438 107.044,301.254 108.000,301.889 108.000 C 302.170 108.000,302.402 108.405,302.405 108.900 C 302.415 110.500,302.869 111.568,303.643 111.814 C 304.112 111.963,304.400 112.424,304.400 113.027 C 304.400 113.562,304.580 114.000,304.800 114.000 C 305.020 114.000,305.200 114.459,305.200 115.019 C 305.200 115.580,305.624 116.435,306.143 116.919 C 306.747 117.483,307.187 118.481,307.366 119.691 C 307.520 120.731,307.816 121.686,308.023 121.814 C 308.230 121.942,308.400 122.397,308.400 122.824 C 308.400 123.251,308.535 123.600,308.700 123.600 C 308.865 123.600,308.992 124.185,308.983 124.900 C 308.963 126.416,309.464 127.492,310.647 128.472 C 311.425 129.118,311.986 131.541,312.159 135.010 C 312.182 135.455,312.605 136.335,313.100 136.964 C 313.819 137.878,314.000 138.619,314.000 140.654 C 314.000 142.085,314.175 143.200,314.400 143.200 C 314.620 143.200,314.806 143.875,314.814 144.700 C 314.828 146.308,316.074 149.392,316.527 148.940 C 316.677 148.790,316.800 158.833,316.800 171.258 L 316.800 193.850 315.819 195.884 C 315.279 197.003,314.784 198.747,314.719 199.759 C 314.653 200.771,314.464 201.600,314.297 201.600 C 314.130 201.600,314.024 202.415,314.062 203.410 C 314.118 204.887,313.931 205.428,313.046 206.352 C 312.449 206.975,312.006 207.645,312.061 207.842 C 312.232 208.453,311.554 213.379,311.269 213.595 C 310.717 214.015,309.593 216.638,309.511 217.700 C 309.464 218.305,309.266 218.800,309.070 218.800 C 308.874 218.800,308.816 219.065,308.940 219.389 C 309.065 219.713,308.859 220.208,308.483 220.489 C 308.107 220.770,307.771 221.270,307.735 221.600 C 307.449 224.222,307.119 225.128,306.379 225.321 C 305.938 225.437,305.611 225.682,305.652 225.866 C 305.747 226.290,305.150 227.736,304.770 228.000 C 304.612 228.110,304.419 228.640,304.341 229.179 C 304.264 229.717,303.816 230.576,303.346 231.088 C 302.876 231.599,302.500 232.239,302.509 232.509 C 302.554 233.797,302.356 234.400,301.889 234.400 C 301.127 234.400,300.001 235.884,299.907 237.011 C 299.862 237.555,299.595 238.000,299.313 238.000 C 299.031 238.000,298.800 238.366,298.800 238.813 C 298.800 239.259,298.530 239.729,298.200 239.855 C 297.870 239.982,297.600 240.248,297.600 240.447 C 297.600 240.646,296.880 241.864,296.000 243.153 C 295.120 244.442,294.400 245.623,294.400 245.777 C 294.400 245.931,294.175 246.282,293.900 246.558 C 293.625 246.833,292.878 247.714,292.239 248.515 C 291.601 249.317,290.926 249.878,290.739 249.762 C 290.553 249.647,290.400 249.824,290.400 250.157 C 290.400 250.489,290.175 250.904,289.900 251.080 C 289.625 251.256,289.076 252.030,288.681 252.800 C 288.285 253.570,287.358 254.650,286.620 255.200 C 285.882 255.750,285.358 256.330,285.456 256.489 C 285.554 256.648,285.266 257.093,284.817 257.478 C 284.368 257.863,284.000 258.408,284.000 258.689 C 284.000 258.970,283.837 259.200,283.637 259.200 C 283.437 259.200,282.440 260.010,281.421 261.000 C 280.403 261.990,279.386 262.800,279.161 262.800 C 278.937 262.800,278.835 262.935,278.934 263.100 C 279.034 263.265,278.865 263.632,278.558 263.916 C 278.251 264.199,278.000 264.323,278.000 264.191 C 278.000 264.058,277.481 264.456,276.846 265.075 C 276.212 265.694,275.743 266.290,275.804 266.400 C 276.001 266.752,274.896 267.563,274.609 267.276 C 274.458 267.124,274.393 267.210,274.467 267.468 C 274.540 267.725,273.925 268.559,273.100 269.322 C 272.275 270.084,271.600 270.599,271.600 270.465 C 271.600 270.331,271.320 270.622,270.977 271.111 C 270.635 271.600,270.120 272.000,269.833 272.000 C 269.547 272.000,268.667 272.585,267.879 273.300 C 264.112 276.716,263.531 277.148,262.983 276.938 C 262.592 276.788,262.400 276.978,262.400 277.514 C 262.400 278.246,261.428 279.018,260.700 278.864 C 260.535 278.829,260.400 278.980,260.400 279.200 C 260.400 279.420,260.069 279.600,259.663 279.600 C 259.258 279.600,258.446 280.005,257.858 280.500 C 257.271 280.995,256.316 281.805,255.737 282.300 C 255.157 282.795,254.439 283.200,254.142 283.200 C 253.844 283.200,253.600 283.380,253.600 283.600 C 253.600 283.820,253.176 284.000,252.658 284.000 C 252.141 284.000,251.244 284.438,250.666 284.974 C 250.088 285.510,248.950 286.054,248.139 286.183 C 247.327 286.312,246.414 286.773,246.110 287.207 C 245.795 287.657,244.876 288.106,243.978 288.250 C 243.110 288.389,242.400 288.659,242.400 288.851 C 242.400 289.043,241.963 289.200,241.429 289.200 C 240.894 289.200,240.211 289.446,239.910 289.747 C 239.202 290.455,237.699 290.925,236.271 290.884 C 235.561 290.864,234.468 291.364,233.339 292.226 C 231.668 293.502,231.329 293.600,228.618 293.600 C 226.510 293.600,225.559 293.767,225.200 294.200 C 224.926 294.530,224.289 294.800,223.784 294.800 C 223.280 294.800,222.797 295.010,222.711 295.267 C 222.609 295.572,220.970 295.795,217.978 295.911 C 215.460 296.008,213.229 296.248,213.020 296.444 C 212.811 296.640,212.262 296.800,211.800 296.800 C 211.338 296.800,210.744 297.016,210.480 297.280 C 210.216 297.544,210.000 297.612,210.000 297.431 C 210.000 297.250,209.758 297.302,209.463 297.547 C 208.543 298.311,188.611 298.193,187.504 297.418 C 187.008 297.070,185.787 296.800,184.711 296.800 C 183.660 296.800,182.800 296.638,182.800 296.439 C 182.800 296.240,180.788 296.056,178.329 296.029 C 173.642 295.977,172.000 295.751,172.000 295.157 C 172.000 294.960,171.724 294.800,171.387 294.800 C 171.051 294.800,170.671 294.530,170.545 294.200 C 170.368 293.739,169.604 293.600,167.244 293.600 C 164.407 293.600,164.007 293.492,161.987 292.185 C 160.709 291.358,159.384 290.806,158.800 290.857 C 157.568 290.965,156.018 290.475,155.290 289.747 C 154.989 289.446,154.306 289.200,153.771 289.200 C 153.237 289.200,152.800 289.020,152.800 288.800 C 152.800 288.580,152.091 288.400,151.224 288.400 C 150.357 288.400,149.547 288.239,149.426 288.041 C 149.125 287.554,146.102 286.000,145.455 286.000 C 145.169 286.000,144.694 285.550,144.400 285.000 C 143.991 284.237,143.545 284.000,142.515 284.000 C 141.611 284.000,140.808 283.659,140.083 282.969 C 138.929 281.870,137.321 281.078,136.843 281.373 C 136.684 281.472,136.224 281.113,135.821 280.576 C 135.418 280.039,134.819 279.600,134.490 279.600 C 134.161 279.600,133.511 279.195,133.046 278.700 C 132.057 277.647,130.202 276.400,129.627 276.400 C 129.406 276.400,128.331 275.545,127.239 274.500 C 126.146 273.455,125.015 272.544,124.726 272.477 C 124.234 272.361,123.558 271.776,120.875 269.147 C 120.284 268.567,119.215 267.798,118.500 267.436 C 117.785 267.075,117.200 266.597,117.200 266.374 C 117.200 265.998,115.800 264.531,112.963 261.936 C 111.744 260.820,110.214 259.106,108.200 256.601 C 107.540 255.780,105.994 254.094,104.764 252.854 C 103.533 251.614,102.400 250.086,102.245 249.458 C 102.090 248.829,101.622 248.226,101.205 248.117 C 100.753 247.999,100.334 247.409,100.169 246.660 C 99.914 245.500,98.681 244.000,97.982 244.000 C 97.820 244.000,97.582 243.583,97.454 243.074 C 97.176 241.966,95.887 240.400,95.253 240.400 C 94.993 240.400,94.800 239.737,94.800 238.846 C 94.800 237.632,94.582 237.149,93.806 236.641 C 93.260 236.283,92.694 235.497,92.548 234.895 C 92.402 234.293,91.975 233.350,91.599 232.800 C 91.222 232.250,90.988 231.591,91.078 231.337 C 91.168 231.082,91.053 230.756,90.821 230.613 C 90.590 230.470,90.400 229.979,90.400 229.522 C 90.400 229.065,89.926 228.253,89.348 227.716 C 88.614 227.037,88.234 226.200,88.094 224.957 C 87.954 223.716,87.605 222.948,86.947 222.429 C 86.374 221.979,86.000 221.263,86.000 220.619 C 86.000 220.010,85.828 219.659,85.600 219.800 C 85.359 219.949,85.200 219.411,85.200 218.444 C 85.200 217.314,84.921 216.541,84.255 215.821 C 83.526 215.034,83.261 214.194,83.096 212.140 C 82.947 210.278,82.690 209.370,82.241 209.119 C 81.804 208.874,81.600 208.198,81.600 206.992 C 81.600 205.966,81.264 204.627,80.800 203.800 C 80.360 203.017,80.000 201.726,80.000 200.932 C 80.000 200.046,79.742 199.300,79.333 199.000 C 78.784 198.599,78.633 197.546,78.481 193.056 C 78.379 190.055,78.139 187.600,77.948 187.600 C 77.757 187.600,77.600 187.144,77.600 186.586 C 77.600 186.028,77.321 185.145,76.979 184.624 C 76.444 183.807,76.375 181.918,76.479 170.938 C 76.600 158.237,76.719 157.097,78.041 156.000 C 78.174 155.890,78.386 153.038,78.512 149.663 C 78.692 144.884,78.882 143.373,79.371 142.832 C 79.728 142.437,80.000 141.426,80.000 140.492 C 80.000 139.587,80.180 138.736,80.400 138.600 C 80.620 138.464,80.806 137.508,80.813 136.476 C 80.825 134.645,81.479 133.200,82.294 133.200 C 82.802 133.200,83.200 131.278,83.200 128.822 C 83.200 127.318,83.399 126.771,84.200 126.075 C 84.750 125.597,85.200 124.844,85.200 124.403 C 85.200 123.961,85.380 123.600,85.600 123.600 C 85.820 123.600,86.000 122.908,86.000 122.061 C 86.000 121.080,86.300 120.177,86.826 119.570 C 87.280 119.046,87.857 117.849,88.109 116.909 C 88.360 115.969,88.709 115.200,88.883 115.200 C 89.057 115.200,89.200 114.930,89.200 114.600 C 89.200 114.270,89.470 114.000,89.800 114.000 C 90.169 114.000,90.400 113.625,90.400 113.024 C 90.400 112.487,90.592 111.928,90.827 111.783 C 91.062 111.638,91.154 111.257,91.031 110.937 C 90.906 110.610,91.245 109.949,91.804 109.431 C 92.352 108.924,92.800 108.190,92.800 107.800 C 92.800 107.410,93.250 106.675,93.800 106.165 C 94.350 105.655,94.800 104.884,94.800 104.452 C 94.800 103.250,95.226 102.400,95.829 102.400 C 96.414 102.400,97.421 100.867,97.285 100.182 C 97.240 99.952,97.832 99.097,98.601 98.281 C 99.371 97.465,100.000 96.652,100.000 96.474 C 100.000 96.296,100.540 95.632,101.200 95.000 C 101.860 94.368,102.400 93.698,102.400 93.512 C 102.400 93.326,103.012 92.561,103.760 91.813 C 104.508 91.065,105.019 90.352,104.895 90.229 C 104.772 90.105,105.150 89.592,105.735 89.089 C 106.321 88.586,106.800 88.033,106.800 87.860 C 106.800 87.688,107.430 86.952,108.200 86.226 C 108.970 85.500,109.600 84.702,109.600 84.453 C 109.600 84.204,109.793 84.000,110.029 84.000 C 110.666 84.000,111.600 82.947,111.600 82.229 C 111.600 81.883,111.842 81.600,112.137 81.600 C 112.735 81.600,119.044 75.632,119.114 75.000 C 119.138 74.780,119.478 74.534,119.869 74.453 C 120.678 74.287,121.624 73.162,121.341 72.704 C 121.237 72.537,121.420 72.400,121.746 72.400 C 122.072 72.400,122.878 71.860,123.538 71.200 C 124.198 70.540,124.887 69.999,125.069 69.998 C 125.251 69.997,126.085 69.367,126.922 68.598 C 127.760 67.829,128.613 67.200,128.819 67.200 C 129.025 67.200,129.675 66.660,130.263 66.000 C 130.851 65.340,131.687 64.800,132.120 64.800 C 132.554 64.800,133.305 64.372,133.789 63.849 C 134.274 63.326,135.330 62.660,136.135 62.369 C 136.941 62.078,137.600 61.589,137.600 61.282 C 137.600 60.976,137.960 60.631,138.400 60.516 C 138.840 60.401,139.200 60.148,139.200 59.953 C 139.200 59.759,139.403 59.600,139.651 59.600 C 140.131 59.600,145.263 57.182,145.600 56.797 C 145.947 56.399,148.917 55.625,149.266 55.841 C 149.450 55.954,149.600 55.857,149.600 55.624 C 149.600 55.391,149.879 55.200,150.219 55.200 C 150.560 55.200,151.249 54.722,151.751 54.139 C 152.489 53.281,153.106 53.040,154.965 52.886 C 156.393 52.768,157.345 52.489,157.475 52.150 C 157.590 51.850,157.857 51.712,158.069 51.842 C 158.280 51.973,158.691 51.755,158.982 51.357 C 159.385 50.805,159.949 50.660,161.355 50.747 C 162.475 50.816,163.200 50.691,163.200 50.430 C 163.200 50.194,163.700 50.000,164.311 50.000 C 164.927 50.000,165.727 49.644,166.107 49.200 C 166.524 48.713,167.302 48.394,168.096 48.384 C 171.650 48.341,173.662 48.051,174.579 47.451 C 175.845 46.621,180.466 46.140,188.211 46.033 C 191.496 45.988,194.260 45.873,194.355 45.779 C 194.449 45.684,194.768 45.807,195.063 46.052 C 195.358 46.297,195.600 46.334,195.600 46.135 M228.043 97.036 L 227.143 98.072 228.071 97.783 C 228.582 97.624,229.060 97.338,229.133 97.147 C 229.207 96.956,229.972 96.800,230.833 96.800 C 231.695 96.800,232.400 96.620,232.400 96.400 C 232.400 95.472,228.968 95.973,228.043 97.036 M242.400 96.393 C 242.400 96.617,243.105 96.800,243.967 96.800 C 244.828 96.800,245.593 96.956,245.667 97.147 C 245.740 97.338,246.242 97.632,246.781 97.800 C 247.637 98.066,247.688 98.032,247.181 97.530 C 246.028 96.389,242.400 95.526,242.400 96.393 M223.338 98.500 C 223.236 98.665,224.003 98.800,225.043 98.800 C 226.083 98.800,226.816 98.683,226.674 98.540 C 226.306 98.172,223.561 98.139,223.338 98.500 M248.140 98.500 C 248.037 98.665,248.593 98.800,249.376 98.800 C 250.159 98.800,250.800 98.646,250.800 98.457 C 250.800 98.040,248.402 98.079,248.140 98.500 M251.600 99.400 C 251.874 99.730,252.269 100.000,252.478 100.000 C 252.686 100.000,253.127 100.270,253.457 100.600 C 253.787 100.930,254.449 101.179,254.929 101.154 C 255.742 101.110,255.747 101.094,255.000 100.905 C 254.560 100.794,253.691 100.275,253.069 99.751 C 251.803 98.686,250.810 98.448,251.600 99.400 M217.200 102.200 C 216.906 102.750,216.425 103.200,216.132 103.200 C 215.840 103.200,215.600 103.380,215.600 103.600 C 215.600 103.820,215.351 104.000,215.047 104.000 C 214.742 104.000,214.400 104.357,214.286 104.793 C 214.110 105.468,214.192 105.525,214.839 105.179 C 215.258 104.955,215.600 104.598,215.600 104.386 C 215.600 104.174,215.879 104.000,216.219 104.000 C 216.857 104.000,218.800 102.149,218.800 101.542 C 218.800 100.804,217.706 101.254,217.200 102.200 M255.900 101.865 C 256.175 101.976,256.400 102.322,256.400 102.633 C 256.400 102.945,256.580 103.200,256.800 103.200 C 257.020 103.200,257.200 103.056,257.200 102.880 C 257.200 102.406,256.303 101.595,255.820 101.632 C 255.589 101.649,255.625 101.754,255.900 101.865 M257.600 103.600 C 257.600 103.820,257.859 104.000,258.176 104.000 C 258.493 104.000,258.864 103.820,259.000 103.600 C 259.136 103.380,258.877 103.200,258.424 103.200 C 257.971 103.200,257.600 103.380,257.600 103.600 M259.328 104.595 C 259.375 105.062,259.738 105.425,260.205 105.472 C 260.781 105.532,260.814 105.499,260.325 105.352 C 259.953 105.242,259.558 104.847,259.448 104.475 C 259.301 103.986,259.268 104.019,259.328 104.595 M212.952 105.926 C 212.562 106.187,211.886 107.600,212.151 107.600 C 212.221 107.600,212.674 107.256,213.159 106.836 C 213.995 106.111,213.821 105.347,212.952 105.926 M210.765 108.351 C 210.416 108.708,210.016 109.315,209.878 109.700 C 209.739 110.085,209.280 110.400,208.859 110.400 C 208.438 110.400,208.003 110.747,207.892 111.170 C 207.751 111.710,207.856 111.877,208.245 111.727 C 208.550 111.610,208.800 111.373,208.800 111.201 C 208.800 111.028,209.250 110.774,209.800 110.636 C 210.350 110.498,210.800 110.131,210.800 109.821 C 210.800 109.511,211.071 108.986,211.403 108.654 C 211.735 108.322,211.870 107.973,211.703 107.877 C 211.536 107.781,211.114 107.994,210.765 108.351 M263.053 107.914 C 262.888 108.181,262.943 108.400,263.176 108.400 C 263.409 108.400,263.600 108.636,263.600 108.925 C 263.600 109.214,264.140 109.968,264.800 110.600 C 265.460 111.232,266.000 111.920,266.000 112.129 C 266.000 112.338,266.450 112.925,267.000 113.435 C 267.550 113.945,268.000 114.640,268.000 114.981 C 268.000 115.321,268.180 115.600,268.400 115.600 C 269.149 115.600,268.802 114.730,267.400 113.092 C 266.630 112.192,266.000 111.239,266.000 110.975 C 266.000 110.710,265.648 110.401,265.218 110.289 C 264.789 110.176,264.193 109.487,263.895 108.757 C 263.540 107.887,263.249 107.596,263.053 107.914 M206.200 113.200 C 206.336 113.420,206.227 113.600,205.957 113.600 C 205.687 113.600,205.550 113.683,205.651 113.784 C 205.945 114.078,207.600 113.543,207.600 113.153 C 207.600 112.959,207.229 112.800,206.776 112.800 C 206.323 112.800,206.064 112.980,206.200 113.200 M204.800 114.520 C 204.800 114.894,204.607 115.200,204.371 115.200 C 203.779 115.200,202.782 116.249,203.086 116.552 C 203.222 116.689,203.123 116.800,202.867 116.800 C 202.610 116.800,202.400 117.070,202.400 117.400 C 202.400 118.378,203.164 118.083,203.436 117.000 C 203.574 116.450,203.860 116.000,204.072 116.000 C 204.879 116.000,205.731 114.771,205.254 114.294 C 204.915 113.955,204.800 114.012,204.800 114.520 M235.345 114.889 C 235.239 115.060,236.183 115.200,237.443 115.200 C 238.703 115.200,239.598 115.065,239.433 114.900 C 239.035 114.501,235.590 114.492,235.345 114.889 M233.855 115.800 C 233.711 116.177,233.099 116.400,232.213 116.400 C 231.436 116.400,230.800 116.580,230.800 116.800 C 230.800 117.619,233.066 117.194,234.000 116.200 C 234.517 115.650,234.747 115.200,234.513 115.200 C 234.278 115.200,233.982 115.470,233.855 115.800 M242.760 117.156 C 243.288 117.562,244.016 117.816,244.379 117.721 C 245.091 117.535,248.400 120.194,248.400 120.953 C 248.400 121.205,248.805 121.588,249.300 121.805 C 249.795 122.022,250.258 122.605,250.328 123.100 C 250.405 123.642,250.723 123.987,251.128 123.968 C 251.544 123.949,251.610 123.860,251.300 123.735 C 251.025 123.624,250.800 123.297,250.800 123.008 C 250.800 122.277,245.728 117.200,244.997 117.200 C 244.669 117.200,244.400 117.020,244.400 116.800 C 244.400 116.580,243.815 116.404,243.100 116.409 L 241.800 116.418 242.760 117.156 M228.161 118.200 C 227.748 118.750,227.211 119.200,226.967 119.200 C 226.723 119.200,226.198 119.560,225.800 120.000 C 225.389 120.454,225.276 120.800,225.538 120.800 C 225.792 120.800,226.000 120.630,226.000 120.422 C 226.000 120.030,227.396 119.165,229.300 118.377 C 230.558 117.856,230.757 117.200,229.656 117.200 C 229.247 117.200,228.574 117.650,228.161 118.200 M270.199 119.800 C 270.493 121.587,271.200 122.664,271.200 121.326 C 271.200 120.867,270.915 119.976,270.568 119.346 L 269.935 118.200 270.199 119.800 M199.421 120.546 C 198.859 121.066,198.400 121.674,198.400 121.897 C 198.400 122.120,198.126 122.530,197.790 122.808 C 197.455 123.086,197.269 123.403,197.378 123.511 C 197.683 123.816,199.585 121.870,199.593 121.244 C 199.597 120.938,199.915 120.449,200.300 120.157 C 200.685 119.865,200.874 119.620,200.721 119.613 C 200.567 119.606,199.982 120.026,199.421 120.546 M223.200 122.151 C 223.200 122.454,222.930 122.926,222.600 123.200 C 221.910 123.773,221.810 124.400,222.410 124.400 C 222.635 124.400,222.991 123.950,223.200 123.400 C 223.409 122.850,223.765 122.400,223.990 122.400 C 224.216 122.400,224.400 122.220,224.400 122.000 C 224.400 121.780,224.130 121.600,223.800 121.600 C 223.470 121.600,223.200 121.848,223.200 122.151 M220.800 125.400 C 220.800 125.730,220.620 126.000,220.400 126.000 C 220.180 126.000,220.000 126.191,220.000 126.424 C 220.000 127.011,220.710 126.515,221.212 125.578 C 221.498 125.043,221.499 124.800,221.214 124.800 C 220.986 124.800,220.800 125.070,220.800 125.400 M271.200 126.367 C 271.200 127.008,271.425 127.608,271.700 127.700 C 272.062 127.821,272.200 129.169,272.200 132.600 C 272.200 136.031,272.062 137.379,271.700 137.500 C 271.133 137.689,271.005 140.000,271.563 140.000 C 271.762 140.000,271.833 139.649,271.721 139.220 C 271.607 138.782,271.887 137.921,272.359 137.258 C 273.242 136.018,273.663 128.400,272.849 128.400 C 272.344 128.400,271.473 126.128,271.785 125.624 C 271.929 125.391,271.857 125.200,271.624 125.200 C 271.391 125.200,271.200 125.725,271.200 126.367 M194.105 126.373 C 193.226 127.107,192.210 129.143,192.552 129.486 C 192.648 129.582,192.857 129.250,193.016 128.749 C 193.352 127.692,194.155 126.800,194.771 126.800 C 195.007 126.800,195.200 126.530,195.200 126.200 C 195.200 125.460,195.200 125.460,194.105 126.373 M215.233 131.171 C 211.472 134.994,210.539 136.228,211.767 135.757 C 212.115 135.624,212.400 135.285,212.400 135.004 C 212.400 134.723,213.075 133.867,213.900 133.102 C 216.403 130.780,219.363 127.627,219.176 127.480 C 219.079 127.404,217.305 129.064,215.233 131.171 M252.800 132.800 C 252.800 137.549,253.283 139.178,253.722 135.909 C 253.846 134.978,254.140 134.153,254.374 134.075 C 254.977 133.874,254.902 132.687,254.202 131.346 C 253.874 130.716,253.604 129.705,253.602 129.100 C 253.601 128.495,253.420 128.000,253.200 128.000 C 252.956 128.000,252.800 129.867,252.800 132.800 M186.900 134.012 C 186.405 134.211,186.000 134.516,186.000 134.690 C 186.000 135.233,182.638 138.684,181.843 138.958 C 181.426 139.102,181.193 139.327,181.325 139.459 C 181.457 139.591,181.888 139.558,182.283 139.386 C 182.677 139.214,183.135 139.102,183.300 139.136 C 183.465 139.171,183.600 138.963,183.600 138.674 C 183.600 138.384,184.230 137.589,185.000 136.908 C 185.770 136.226,186.400 135.418,186.400 135.111 C 186.400 134.805,186.895 134.359,187.500 134.120 C 188.105 133.881,188.420 133.677,188.200 133.668 C 187.980 133.658,187.395 133.813,186.900 134.012 M208.618 138.397 C 207.527 139.482,206.737 140.470,206.861 140.594 C 206.985 140.718,207.314 140.545,207.592 140.210 C 207.870 139.874,208.325 139.600,208.602 139.600 C 208.880 139.600,209.211 139.285,209.339 138.900 C 209.466 138.515,209.869 137.795,210.234 137.300 C 211.248 135.925,210.793 136.233,208.618 138.397 M179.670 141.622 C 179.158 142.270,178.835 142.800,178.951 142.800 C 179.210 142.800,181.200 140.837,181.200 140.582 C 181.200 140.092,180.505 140.564,179.670 141.622 M251.206 141.582 C 250.659 142.002,250.323 142.456,250.458 142.592 C 250.594 142.727,250.983 142.560,251.324 142.219 C 251.664 141.879,252.136 141.600,252.371 141.600 C 252.607 141.600,252.800 141.420,252.800 141.200 C 252.800 140.610,252.322 140.724,251.206 141.582 M205.660 141.868 C 204.919 142.669,205.409 143.048,206.184 142.273 C 206.526 141.931,206.670 141.568,206.503 141.467 C 206.336 141.367,205.957 141.547,205.660 141.868 M204.000 143.325 C 204.000 143.614,203.462 144.366,202.804 144.996 C 202.146 145.626,201.681 146.214,201.769 146.303 C 201.966 146.499,204.774 143.521,204.789 143.100 C 204.795 142.935,204.620 142.800,204.400 142.800 C 204.180 142.800,204.000 143.036,204.000 143.325 M270.495 144.554 C 270.644 146.039,270.527 146.415,269.735 147.010 C 269.221 147.396,268.821 148.092,268.846 148.556 C 268.889 149.337,268.908 149.342,269.091 148.623 C 269.199 148.195,269.719 147.507,270.244 147.094 C 271.266 146.290,271.686 142.800,270.760 142.800 C 270.481 142.800,270.384 143.439,270.495 144.554 M249.600 143.600 C 249.600 143.820,249.351 144.000,249.047 144.000 C 248.742 144.000,248.402 144.476,248.291 145.058 L 248.089 146.117 249.244 144.880 C 250.477 143.561,250.639 143.200,250.000 143.200 C 249.780 143.200,249.600 143.380,249.600 143.600 M250.255 146.200 C 250.115 146.565,250.255 146.800,250.613 146.800 C 250.936 146.800,251.200 146.530,251.200 146.200 C 251.200 145.870,251.039 145.600,250.843 145.600 C 250.646 145.600,250.382 145.870,250.255 146.200 M177.800 146.400 C 177.091 146.705,177.125 146.747,178.100 146.772 C 178.705 146.787,179.200 146.620,179.200 146.400 C 179.200 145.931,178.893 145.931,177.800 146.400 M199.529 148.494 C 199.447 149.072,199.081 149.445,198.519 149.525 C 198.031 149.595,197.516 150.041,197.365 150.525 C 197.215 151.006,196.917 151.513,196.703 151.650 C 196.459 151.807,196.475 151.999,196.746 152.166 C 196.991 152.318,197.277 152.031,197.410 151.502 C 197.539 150.990,198.022 150.397,198.485 150.185 C 199.566 149.691,200.584 148.161,200.052 147.832 C 199.835 147.698,199.599 147.996,199.529 148.494 M172.400 148.725 C 172.400 148.903,172.022 149.455,171.560 149.951 C 171.098 150.447,170.823 150.957,170.950 151.083 C 171.286 151.420,172.400 150.396,172.400 149.751 C 172.400 149.448,172.580 149.200,172.800 149.200 C 173.020 149.200,173.200 149.020,173.200 148.800 C 173.200 148.580,173.020 148.400,172.800 148.400 C 172.580 148.400,172.400 148.546,172.400 148.725 M173.784 150.827 C 173.639 151.061,173.616 151.349,173.733 151.467 C 174.020 151.753,174.800 151.248,174.800 150.776 C 174.800 150.265,174.109 150.299,173.784 150.827 M241.351 152.692 C 238.145 155.820,235.859 159.083,238.395 156.911 C 238.838 156.532,239.200 156.048,239.200 155.836 C 239.200 155.623,240.298 154.391,241.640 153.098 C 242.982 151.805,243.999 150.665,243.899 150.566 C 243.799 150.466,242.653 151.422,241.351 152.692 M245.384 150.827 C 245.015 151.422,245.442 151.746,246.208 151.452 C 246.562 151.317,246.739 151.024,246.602 150.803 C 246.278 150.278,245.716 150.289,245.384 150.827 M267.426 151.172 C 267.011 151.630,266.795 152.128,266.945 152.279 C 267.325 152.658,268.529 151.386,268.336 150.809 C 268.237 150.511,267.903 150.645,267.426 151.172 M169.232 152.113 C 169.214 152.505,168.795 152.989,168.300 153.188 L 167.400 153.549 168.313 153.575 C 169.263 153.601,169.824 152.796,169.469 151.913 C 169.342 151.596,169.251 151.672,169.232 152.113 M266.000 153.167 C 266.000 153.369,265.875 153.864,265.722 154.267 C 265.462 154.954,265.488 154.957,266.122 154.329 C 266.874 153.583,267.017 152.800,266.400 152.800 C 266.180 152.800,266.000 152.965,266.000 153.167 M242.800 153.600 C 242.800 153.820,243.070 154.000,243.400 154.000 C 243.730 154.000,244.000 153.820,244.000 153.600 C 244.000 153.380,243.730 153.200,243.400 153.200 C 243.070 153.200,242.800 153.380,242.800 153.600 M167.200 154.543 C 167.200 154.868,166.975 155.224,166.700 155.335 C 166.386 155.462,166.368 155.549,166.651 155.568 C 167.345 155.617,168.125 154.524,167.619 154.212 C 167.389 154.069,167.200 154.218,167.200 154.543 M169.055 155.800 C 168.915 156.165,169.055 156.400,169.413 156.400 C 169.736 156.400,170.000 156.130,170.000 155.800 C 170.000 155.470,169.839 155.200,169.643 155.200 C 169.446 155.200,169.182 155.470,169.055 155.800 M240.655 155.800 C 240.515 156.165,240.655 156.400,241.013 156.400 C 241.336 156.400,241.600 156.130,241.600 155.800 C 241.600 155.470,241.439 155.200,241.243 155.200 C 241.046 155.200,240.782 155.470,240.655 155.800 M235.867 157.867 C 235.720 158.013,235.600 158.382,235.600 158.686 C 235.600 158.990,235.124 159.680,234.542 160.219 C 233.959 160.759,233.649 161.200,233.853 161.200 C 234.302 161.200,235.620 159.731,236.274 158.500 C 236.721 157.660,236.467 157.266,235.867 157.867 M262.100 157.865 C 261.825 157.976,261.600 158.246,261.600 158.464 C 261.600 158.683,261.060 159.402,260.400 160.062 C 259.740 160.722,259.200 161.422,259.200 161.618 C 259.200 162.266,260.188 161.606,260.885 160.494 C 261.262 159.892,261.869 158.995,262.234 158.500 C 262.925 157.562,262.919 157.534,262.100 157.865 M161.120 161.173 C 160.527 161.797,160.134 162.400,160.247 162.514 C 160.456 162.722,162.800 160.610,162.800 160.213 C 162.800 159.727,162.135 160.107,161.120 161.173 M187.759 160.561 C 187.371 161.575,187.767 162.065,188.293 161.222 C 188.605 160.724,188.640 160.348,188.389 160.193 C 188.172 160.059,187.889 160.225,187.759 160.561 M232.577 162.167 C 232.150 162.479,231.907 162.840,232.036 162.970 C 232.166 163.099,232.598 162.844,232.998 162.402 C 233.848 161.463,233.673 161.366,232.577 162.167 M257.261 163.835 C 256.524 164.565,256.015 165.397,256.129 165.682 C 256.291 166.086,256.344 166.089,256.368 165.694 C 256.386 165.416,256.985 164.666,257.700 164.027 C 258.415 163.389,258.910 162.785,258.800 162.686 C 258.690 162.587,257.997 163.104,257.261 163.835 M158.200 163.600 C 158.064 163.820,158.098 164.003,158.276 164.006 C 158.454 164.009,158.335 164.180,158.012 164.384 C 157.688 164.589,157.538 164.871,157.678 165.012 C 157.917 165.250,159.600 163.838,159.600 163.400 C 159.600 163.031,158.450 163.195,158.200 163.600 M230.700 163.985 C 229.682 164.977,229.840 165.380,230.871 164.420 C 231.350 163.974,231.665 163.540,231.571 163.456 C 231.477 163.372,231.085 163.610,230.700 163.985 M189.646 164.451 C 189.586 165.295,190.628 166.202,190.988 165.619 C 191.131 165.389,190.980 165.200,190.653 165.200 C 190.326 165.200,189.976 164.885,189.876 164.500 C 189.721 163.909,189.686 163.902,189.646 164.451 M156.293 166.800 C 155.916 167.240,155.336 167.600,155.004 167.600 C 154.667 167.600,154.400 167.953,154.400 168.400 C 154.400 168.840,154.220 169.200,154.000 169.200 C 153.331 169.200,151.998 170.755,152.028 171.500 C 152.052 172.099,152.106 172.084,152.400 171.400 C 152.589 170.960,152.756 170.724,152.772 170.876 C 152.787 171.028,153.745 170.128,154.900 168.876 C 156.055 167.624,157.180 166.468,157.400 166.306 C 157.664 166.112,157.660 166.010,157.389 166.006 C 157.163 166.003,156.670 166.360,156.293 166.800 M227.500 167.185 C 226.482 168.177,226.640 168.580,227.671 167.620 C 228.150 167.174,228.465 166.740,228.371 166.656 C 228.277 166.572,227.885 166.810,227.500 167.185 M252.300 168.794 C 251.695 169.429,251.200 170.119,251.200 170.328 C 251.200 170.536,250.840 170.801,250.400 170.916 C 249.960 171.031,249.600 171.305,249.600 171.525 C 249.600 172.385,251.150 171.459,251.833 170.191 C 252.229 169.455,252.879 168.768,253.277 168.664 C 253.674 168.560,254.000 168.278,254.000 168.037 C 254.000 167.328,253.472 167.563,252.300 168.794 M194.268 168.600 C 194.849 170.228,197.200 172.152,197.200 171.000 C 197.200 170.670,196.999 170.400,196.753 170.400 C 196.507 170.400,195.783 169.815,195.144 169.100 C 194.359 168.222,194.075 168.059,194.268 168.600 M224.580 170.140 C 223.839 170.951,223.584 171.981,224.181 171.752 C 224.478 171.638,224.822 171.160,224.945 170.690 C 225.215 169.657,225.134 169.535,224.580 170.140 M226.584 170.427 C 226.148 171.132,226.607 171.230,227.429 170.609 C 228.106 170.097,228.117 170.024,227.524 170.013 C 227.152 170.006,226.729 170.192,226.584 170.427 M197.200 172.319 C 197.200 172.561,197.785 173.308,198.500 173.978 C 199.974 175.360,200.883 175.672,199.500 174.321 C 199.005 173.838,198.285 173.090,197.900 172.660 C 197.515 172.230,197.200 172.076,197.200 172.319 M221.672 173.003 C 221.195 173.551,220.944 174.000,221.114 174.000 C 221.508 174.000,222.910 172.376,222.698 172.165 C 222.611 172.077,222.149 172.455,221.672 173.003 M149.054 174.202 C 148.915 174.565,149.056 174.800,149.413 174.800 C 150.060 174.800,150.207 174.175,149.642 173.826 C 149.445 173.704,149.181 173.874,149.054 174.202 M223.878 174.256 C 223.558 174.575,223.919 175.200,224.424 175.200 C 224.631 175.200,224.800 174.930,224.800 174.600 C 224.800 173.981,224.328 173.805,223.878 174.256 M246.636 175.000 C 246.494 175.564,246.083 176.014,245.692 176.032 C 245.187 176.055,245.151 176.123,245.558 176.284 C 246.068 176.486,247.570 175.020,247.591 174.300 C 247.613 173.552,246.861 174.104,246.636 175.000 M200.634 175.545 C 200.513 175.741,201.040 176.567,201.807 177.380 C 202.573 178.192,203.200 178.692,203.200 178.490 C 203.200 178.289,202.840 177.798,202.400 177.400 C 201.960 177.002,201.600 176.445,201.600 176.162 C 201.600 175.506,200.925 175.074,200.634 175.545 M218.800 176.305 C 218.800 176.473,218.415 176.788,217.945 177.005 C 217.475 177.222,217.100 177.580,217.111 177.800 C 217.123 178.020,216.922 178.454,216.666 178.765 C 216.297 179.212,216.325 179.289,216.800 179.134 C 217.130 179.026,217.455 178.563,217.523 178.106 C 217.596 177.615,218.045 177.175,218.623 177.030 C 219.568 176.793,220.012 176.000,219.200 176.000 C 218.980 176.000,218.800 176.137,218.800 176.305 M221.439 176.738 C 221.300 176.961,221.382 177.265,221.620 177.412 C 222.235 177.793,222.632 177.272,222.118 176.758 C 221.831 176.471,221.607 176.464,221.439 176.738 M144.676 179.009 C 144.058 179.784,143.383 180.313,143.176 180.185 C 142.969 180.057,142.800 180.313,142.800 180.753 C 142.800 181.193,142.980 181.664,143.200 181.800 C 143.420 181.936,143.600 181.727,143.600 181.336 C 143.600 180.944,144.162 180.145,144.849 179.558 C 145.536 178.972,146.031 178.292,145.949 178.046 C 145.867 177.801,145.294 178.234,144.676 179.009 M203.833 179.341 C 203.955 179.660,204.440 180.022,204.910 180.145 C 206.166 180.473,206.128 180.248,204.793 179.459 C 203.857 178.906,203.656 178.882,203.833 179.341 M218.800 179.200 C 218.327 179.492,218.308 179.668,218.703 180.063 C 219.090 180.450,219.307 180.453,219.680 180.080 C 220.329 179.431,219.602 178.704,218.800 179.200 M214.812 180.384 C 214.488 180.589,214.352 180.885,214.509 181.042 C 214.666 181.200,214.436 181.580,213.997 181.887 C 213.559 182.194,213.206 182.660,213.213 182.923 C 213.220 183.187,213.462 183.088,213.757 182.700 C 214.049 182.315,214.472 182.000,214.697 182.000 C 214.923 182.000,215.193 181.550,215.298 181.000 C 215.403 180.450,215.469 180.003,215.445 180.006 C 215.420 180.009,215.135 180.180,214.812 180.384 M206.000 181.364 C 206.000 181.684,206.374 182.065,206.830 182.210 C 208.067 182.602,208.163 182.199,207.012 181.445 C 206.163 180.889,206.000 180.876,206.000 181.364 M140.938 182.217 C 140.589 183.126,141.070 183.388,141.781 182.676 C 142.562 181.895,142.564 181.600,141.787 181.600 C 141.451 181.600,141.068 181.878,140.938 182.217 M208.277 183.572 C 208.388 183.997,208.735 184.443,209.049 184.563 C 209.499 184.736,209.532 184.621,209.207 184.013 C 208.627 182.930,208.035 182.649,208.277 183.572 M238.600 183.200 C 238.464 183.420,238.623 183.600,238.953 183.600 C 239.283 183.600,239.664 183.420,239.800 183.200 C 239.936 182.980,239.777 182.800,239.447 182.800 C 239.117 182.800,238.736 182.980,238.600 183.200 M212.473 184.087 C 212.213 184.347,212.000 184.794,212.000 185.080 C 212.000 185.708,211.785 185.727,210.774 185.186 C 210.240 184.900,210.000 184.900,210.000 185.186 C 210.000 185.414,210.270 185.600,210.600 185.600 C 210.930 185.600,211.200 185.780,211.200 186.000 C 211.200 186.761,211.947 186.397,212.227 185.500 C 212.381 185.005,212.703 184.475,212.942 184.322 C 213.181 184.169,213.280 183.947,213.162 183.828 C 213.043 183.710,212.734 183.826,212.473 184.087 M237.200 184.720 C 237.200 185.220,236.951 185.600,236.624 185.600 C 236.307 185.600,235.946 185.763,235.823 185.963 C 235.467 186.540,237.123 185.975,237.650 185.340 C 238.011 184.905,238.014 184.654,237.663 184.303 C 237.312 183.952,237.200 184.053,237.200 184.720 M138.880 184.880 C 138.616 185.144,138.400 185.594,138.400 185.880 C 138.400 186.166,138.190 186.400,137.933 186.400 C 137.677 186.400,137.561 186.494,137.676 186.609 C 138.125 187.058,139.126 186.297,139.303 185.373 C 139.518 184.248,139.515 184.245,138.880 184.880 M136.000 187.960 C 136.000 188.467,134.021 190.425,132.180 191.739 C 131.611 192.146,131.244 192.578,131.365 192.699 C 131.486 192.820,131.184 193.267,130.693 193.693 C 130.202 194.119,129.787 194.587,129.771 194.734 C 129.756 194.880,129.500 195.500,129.202 196.111 C 128.789 196.961,128.772 197.332,129.131 197.691 C 129.490 198.050,129.600 197.913,129.600 197.109 C 129.600 196.530,129.870 195.787,130.200 195.457 C 130.530 195.127,130.800 194.694,130.800 194.495 C 130.800 194.295,131.295 193.661,131.900 193.084 C 132.505 192.508,133.506 191.488,134.125 190.818 C 134.744 190.148,135.407 189.600,135.598 189.600 C 136.030 189.600,136.560 188.026,136.237 187.703 C 136.106 187.573,136.000 187.689,136.000 187.960 M234.300 187.876 C 233.915 187.976,233.600 188.225,233.600 188.429 C 233.600 188.994,234.243 188.872,234.800 188.200 C 235.074 187.870,235.231 187.621,235.149 187.646 C 235.067 187.672,234.685 187.775,234.300 187.876 M230.000 192.426 C 228.350 194.167,226.775 195.593,226.500 195.596 C 226.225 195.598,226.000 195.870,226.000 196.200 C 226.000 196.530,225.820 196.800,225.600 196.800 C 225.380 196.800,225.202 197.115,225.204 197.500 C 225.208 198.013,225.483 197.852,226.233 196.900 C 226.797 196.185,227.515 195.600,227.829 195.600 C 228.143 195.600,228.400 195.356,228.400 195.058 C 228.400 194.760,229.345 193.620,230.500 192.525 C 232.971 190.183,233.831 189.189,233.349 189.230 C 233.157 189.247,231.650 190.685,230.000 192.426 M126.984 198.827 C 126.839 199.061,126.816 199.349,126.933 199.467 C 127.220 199.753,128.000 199.248,128.000 198.776 C 128.000 198.265,127.309 198.299,126.984 198.827 M222.600 200.400 C 222.202 200.840,222.078 201.200,222.324 201.200 C 222.570 201.200,222.965 200.840,223.200 200.400 C 223.435 199.960,223.560 199.600,223.476 199.600 C 223.392 199.600,222.998 199.960,222.600 200.400 M126.400 201.066 C 126.400 201.964,125.127 204.800,124.723 204.800 C 124.545 204.800,124.418 205.295,124.440 205.900 C 124.476 206.903,124.503 206.921,124.740 206.109 C 124.883 205.619,125.336 204.828,125.746 204.351 C 126.461 203.520,127.177 200.400,126.653 200.400 C 126.514 200.400,126.400 200.700,126.400 201.066 M219.700 203.356 C 218.765 204.303,218.000 205.277,218.000 205.519 C 218.000 205.762,217.686 206.136,217.303 206.350 C 216.920 206.565,216.725 206.858,216.870 207.003 C 217.123 207.257,218.800 205.839,218.800 205.371 C 218.800 204.969,219.927 204.000,220.395 204.000 C 220.644 204.000,220.753 203.847,220.637 203.661 C 220.522 203.474,220.788 202.934,221.229 202.461 C 222.728 200.852,221.409 201.624,219.700 203.356 M124.035 208.600 C 123.971 208.820,123.945 209.540,123.977 210.200 C 124.009 210.860,123.672 212.480,123.227 213.800 C 122.397 216.267,122.111 220.400,122.771 220.400 C 122.975 220.400,123.200 220.699,123.271 221.064 C 123.342 221.429,123.400 219.892,123.400 217.649 C 123.400 214.727,123.548 213.479,123.922 213.248 C 124.285 213.024,124.399 212.207,124.297 210.563 C 124.217 209.263,124.099 208.380,124.035 208.600 M213.300 210.284 C 211.478 212.214,211.366 212.400,212.029 212.400 C 212.509 212.400,213.600 211.410,213.600 210.974 C 213.600 210.819,214.050 210.275,214.600 209.765 C 215.150 209.255,215.600 208.740,215.600 208.619 C 215.600 208.088,214.881 208.608,213.300 210.284 M205.700 218.598 C 204.957 219.442,205.094 219.673,206.000 219.107 C 206.440 218.832,206.800 218.471,206.800 218.304 C 206.800 217.827,206.249 217.975,205.700 218.598 M204.000 219.823 C 204.000 220.165,203.443 220.954,202.762 221.576 C 201.957 222.311,201.591 222.968,201.715 223.454 C 201.874 224.073,201.915 224.046,201.954 223.300 C 201.979 222.805,202.189 222.400,202.419 222.400 C 203.006 222.400,204.800 220.397,204.800 219.742 C 204.800 219.444,204.620 219.200,204.400 219.200 C 204.180 219.200,204.000 219.480,204.000 219.823 M123.871 224.700 C 124.192 228.305,124.400 228.370,124.400 224.867 C 124.400 223.290,124.227 222.000,124.015 222.000 C 123.783 222.000,123.726 223.070,123.871 224.700 M198.700 225.572 C 197.875 226.422,197.200 227.391,197.200 227.725 C 197.200 228.060,196.975 228.424,196.700 228.535 C 196.307 228.694,196.309 228.744,196.710 228.768 C 196.990 228.786,197.387 228.361,197.591 227.824 C 197.795 227.288,198.305 226.665,198.724 226.441 C 199.543 226.002,201.022 223.991,200.509 224.013 C 200.339 224.021,199.525 224.722,198.700 225.572 M194.949 229.346 C 194.701 229.629,194.374 230.253,194.222 230.731 C 194.070 231.209,193.688 231.600,193.373 231.600 C 193.058 231.600,192.800 231.774,192.800 231.987 C 192.800 232.764,193.959 231.901,194.972 230.370 C 195.951 228.891,195.935 228.218,194.949 229.346 M125.613 232.300 C 125.620 232.685,125.890 233.349,126.213 233.776 C 126.853 234.624,126.984 234.127,126.548 232.500 C 126.263 231.437,125.594 231.294,125.613 232.300 M191.291 234.016 C 190.791 234.217,190.263 234.700,190.118 235.090 C 189.972 235.481,188.626 237.009,187.126 238.486 C 185.627 239.964,184.400 241.461,184.400 241.815 C 184.400 242.386,184.467 242.390,185.000 241.857 C 185.330 241.527,185.600 241.064,185.600 240.829 C 185.600 240.593,185.858 240.400,186.173 240.400 C 186.488 240.400,186.858 240.048,186.994 239.618 C 187.131 239.187,187.728 238.408,188.321 237.886 C 189.650 236.718,192.629 233.591,192.381 233.625 C 192.282 233.639,191.791 233.815,191.291 234.016 M126.807 235.500 C 126.817 235.950,128.800 237.744,128.800 237.303 C 128.800 236.858,127.423 235.200,127.053 235.200 C 126.914 235.200,126.803 235.335,126.807 235.500 M128.800 238.751 C 128.800 239.164,129.104 239.749,129.475 240.051 C 130.069 240.534,130.117 240.512,129.875 239.867 C 129.724 239.464,129.600 238.879,129.600 238.567 C 129.600 238.255,129.420 238.000,129.200 238.000 C 128.980 238.000,128.800 238.338,128.800 238.751 M131.791 242.391 C 132.185 242.825,132.663 243.085,132.853 242.967 C 133.044 242.849,133.200 243.033,133.200 243.376 C 133.200 243.719,133.395 244.000,133.633 244.000 C 134.344 244.000,133.816 243.031,132.874 242.605 C 132.393 242.388,132.000 242.073,132.000 241.905 C 132.000 241.737,131.792 241.600,131.538 241.600 C 131.274 241.600,131.383 241.939,131.791 242.391 M182.667 242.667 C 182.520 242.813,182.400 243.186,182.400 243.495 C 182.400 243.961,182.503 243.954,183.000 243.457 C 183.330 243.127,183.600 242.754,183.600 242.629 C 183.600 242.315,182.993 242.340,182.667 242.667 M134.576 244.967 C 135.004 245.315,135.478 245.600,135.630 245.600 C 135.782 245.600,136.001 245.960,136.116 246.400 C 136.231 246.840,136.567 247.197,136.863 247.194 C 137.230 247.190,137.259 247.095,136.954 246.894 C 136.709 246.732,136.381 246.195,136.227 245.700 C 136.072 245.205,135.793 244.800,135.606 244.800 C 135.419 244.800,134.936 244.695,134.533 244.567 C 133.862 244.354,133.866 244.388,134.576 244.967 M181.134 244.669 C 180.448 244.851,179.819 245.953,180.191 246.324 C 180.306 246.439,180.400 246.323,180.400 246.067 C 180.400 245.810,180.593 245.600,180.829 245.600 C 181.064 245.600,181.527 245.330,181.857 245.000 C 182.462 244.396,182.354 244.346,181.134 244.669 M178.400 247.171 C 178.400 247.375,178.085 247.632,177.700 247.742 C 177.315 247.853,177.526 247.911,178.169 247.872 C 179.369 247.798,180.174 246.800,179.033 246.800 C 178.685 246.800,178.400 246.967,178.400 247.171 M175.500 248.785 C 174.482 249.777,174.640 250.180,175.671 249.220 C 176.150 248.774,176.465 248.340,176.371 248.256 C 176.277 248.172,175.885 248.410,175.500 248.785 M139.099 249.257 C 139.220 249.719,139.654 250.000,140.247 250.000 C 141.496 250.000,141.450 249.783,140.052 249.086 C 138.986 248.554,138.918 248.566,139.099 249.257 M143.023 250.567 C 143.861 251.180,144.240 251.113,143.816 250.427 C 143.671 250.192,143.259 250.000,142.900 250.000 C 142.354 250.000,142.374 250.093,143.023 250.567 M171.600 250.400 C 171.600 250.875,172.295 250.875,173.400 250.400 C 174.070 250.112,173.989 250.052,172.900 250.028 C 172.185 250.013,171.600 250.180,171.600 250.400 M170.520 251.341 C 170.344 251.639,169.930 251.985,169.600 252.110 C 169.116 252.293,169.132 252.343,169.686 252.368 C 170.063 252.386,170.565 252.040,170.800 251.600 C 171.275 250.713,171.027 250.484,170.520 251.341 M145.633 252.144 C 146.091 252.541,149.200 252.768,149.200 252.405 C 149.200 252.182,148.360 252.000,147.333 252.000 C 146.307 252.000,145.542 252.065,145.633 252.144 M150.588 252.820 C 150.456 253.033,150.979 253.200,151.776 253.200 C 152.775 253.200,153.200 253.379,153.200 253.800 C 153.200 254.246,153.635 254.388,154.900 254.354 C 155.835 254.328,156.240 254.219,155.800 254.112 C 155.360 254.005,154.689 253.641,154.308 253.304 C 153.508 252.595,150.934 252.260,150.588 252.820 M163.367 252.977 C 162.945 253.210,162.485 253.558,162.345 253.751 C 162.204 253.944,161.926 254.001,161.726 253.878 C 161.526 253.754,161.100 253.818,160.781 254.020 C 160.365 254.283,160.613 254.389,161.651 254.394 C 162.460 254.397,163.323 254.134,163.600 253.800 C 163.874 253.470,164.706 253.200,165.449 253.200 C 166.192 253.200,166.800 253.014,166.800 252.787 C 166.800 252.274,164.402 252.407,163.367 252.977 " stroke="none" fill="#ffffff" fill-rule="evenodd"></path></g></svg>